<svg xmlns="http://www.w3.org/2000/svg" viewBox="0 0 120 61.64"><defs><style>.cls-1{fill:#ed0e86;}.cls-2{fill:#fff;fill-rule:evenodd;}</style></defs><g id="Layer_2" data-name="Layer 2"><g id="Layer_1-2" data-name="Layer 1"><path class="cls-1" d="M2.76,7.9C14.42-6.19,92.73.68,115,12c4.92,2.5,5.32,5.58,4.91,10.66-.61,7.64-2.47,19.24-6.18,22.17-16.78,13.24-62.29,17-83.29,16.78C19.46,61.5,10.8,55.9,6.8,45.71,1.59,32.42-3.2,15.11,2.76,7.9Z"/><path class="cls-2" d="M34.73,29.5l0-7.44a1.77,1.77,0,0,0-3.53,0l0,2.85a7.17,7.17,0,0,0-3.12-.84,5.85,5.85,0,0,0-4,1.56A6.15,6.15,0,0,0,22,30.42a6.21,6.21,0,0,0,1.56,4.17,6.07,6.07,0,0,0,4.84,2.23A6.35,6.35,0,0,0,31.44,36a6.07,6.07,0,0,0,2.29-2.15A5.76,5.76,0,0,0,34.52,32a12,12,0,0,0,.21-2.52m-4.44-1.22a2.93,2.93,0,0,1,.93,2.16,2.85,2.85,0,0,1-.85,2.07,2.76,2.76,0,0,1-2,.86,2.7,2.7,0,0,1-1.91-.77,3,3,0,0,1-.92-2.23,2.88,2.88,0,0,1,.73-1.92,2.68,2.68,0,0,1,2.1-1,2.74,2.74,0,0,1,2,.8M48.4,29.5l0-7.44a1.77,1.77,0,0,0-3.53,0l0,2.85a7.17,7.17,0,0,0-3.12-.84,5.85,5.85,0,0,0-4,1.56,6.15,6.15,0,0,0-2.14,4.79,6.21,6.21,0,0,0,1.56,4.17A6.07,6.07,0,0,0,42,36.82,6.35,6.35,0,0,0,45.11,36a6.07,6.07,0,0,0,2.29-2.15A5.76,5.76,0,0,0,48.19,32a12,12,0,0,0,.21-2.52M44,28.28a2.93,2.93,0,0,1,.93,2.16A2.85,2.85,0,0,1,44,32.51a2.76,2.76,0,0,1-2,.86,2.7,2.7,0,0,1-1.91-.77,3,3,0,0,1-.92-2.23,2.88,2.88,0,0,1,.73-1.92,2.67,2.67,0,0,1,2.1-1,2.74,2.74,0,0,1,2,.8M10.38,35V25.56a5.41,5.41,0,1,1,10.81,0V35a1.81,1.81,0,1,1-3.61,0V32.25H14V35a1.81,1.81,0,1,1-3.61,0m7.2-6.36V25.56a1.78,1.78,0,0,0-1.79-1.79A1.79,1.79,0,0,0,14,25.56v3.09ZM70,27.77a1.76,1.76,0,0,0,0-3.52A6.73,6.73,0,0,0,63.27,31v4.11a1.76,1.76,0,0,0,3.52,0V31A3.21,3.21,0,0,1,70,27.77m7.8-3.52a6.3,6.3,0,1,0,0,12.6A6.22,6.22,0,0,0,80.89,36a1.75,1.75,0,0,0,3.21-1V30.55a6.3,6.3,0,0,0-6.3-6.3m2.94,6.3a2.94,2.94,0,1,1-2.94-2.94,2.94,2.94,0,0,1,2.94,2.94M59.07,36a1.75,1.75,0,1,0-1.75-3,2.75,2.75,0,0,1-1.4.38,2.81,2.81,0,0,1-2.17-1h6.72a1.75,1.75,0,0,0,1.76-1.75A6.33,6.33,0,1,0,59.07,36m-3.15-8.26a2.8,2.8,0,0,1,2.19,1.06H53.73a2.8,2.8,0,0,1,2.19-1.06m33.87-9.31a2.29,2.29,0,0,0-2.28,2.29V34.57a2.28,2.28,0,0,0,2.28,2.28h5.28a7,7,0,0,0,7-7V25.41a7,7,0,0,0-7-7Zm7,5.28a2.39,2.39,0,0,1,.71,1.69v4.47a2.42,2.42,0,0,1-2.4,2.4h-3V23h3a2.41,2.41,0,0,1,1.69.7M104,27.36a1,1,0,0,0,0,2h2.71a.92.92,0,0,1,.91.92.92.92,0,0,1-.91.92h-2.14a1,1,0,0,0,0,2h2.14a.92.92,0,0,1,0,1.83H104a1,1,0,0,0,0,2h2.71a2.9,2.9,0,0,0,2.9-2.9,2.86,2.86,0,0,0-.72-1.91,2.9,2.9,0,0,0-2.18-4.81Z"/></g></g></svg>