<svg xmlns="http://www.w3.org/2000/svg" viewBox="0 0 120 27.58"><defs><style>.cls-1{fill:#008752;}.cls-2{fill:#e87624;}</style></defs><g id="Layer_2" data-name="Layer 2"><g id="Layer_1-2" data-name="Layer 1"><path class="cls-1" d="M55.81,19.63H54.13a.94.94,0,0,1-.93-.94V14.22h.57a2.66,2.66,0,0,1,2.66,2.66h.86V10.82h-.86a2.66,2.66,0,0,1-2.66,2.66H53.2V9.4a.94.94,0,0,1,.93-.94h1.68a4.45,4.45,0,0,1,4.25,3.77h.88l-.12-4.51H42.26v.74h.32a1.72,1.72,0,0,1,1.72,1.72v5.69L36.55,7.72H31.77v.74h1a1.1,1.1,0,0,1,1.1,1.1v8.49a1.57,1.57,0,0,1-1.57,1.58h-.55v.73h5.42v-.73h-.54a1.58,1.58,0,0,1-1.58-1.58V10.46l9.23,9.9h1.18V10.18A1.72,1.72,0,0,1,47.2,8.46h1.95a.71.71,0,0,1,.72.71v9.54a.92.92,0,0,1-.92.92H47.84v.73H61l.17-4.51h-.93c-.27,1.35-1.78,3.78-4.4,3.78"/><path class="cls-1" d="M25.55,19.63H23.87a.94.94,0,0,1-.94-.94V14.22h.58a2.66,2.66,0,0,1,2.66,2.66H27V10.82h-.86a2.66,2.66,0,0,1-2.66,2.66h-.58V9.4a.94.94,0,0,1,.94-.94h1.68a4.45,4.45,0,0,1,4.25,3.77h.88l-.12-4.51h-13v.74h1.31a.71.71,0,0,1,.72.71v9.54a.92.92,0,0,1-.92.92H17.58v.73H30.7l.18-4.51H30c-.27,1.35-1.78,3.78-4.4,3.78"/><path class="cls-1" d="M70.89,15.33h1.49A.65.65,0,0,1,73,16v1.09a2.78,2.78,0,0,1-3.11,2.77c-3.36,0-3.58-3.92-3.58-5.63S67,8.07,70.16,8.07c4.11,0,5,4.35,5,4.35H76l-.19-4.91h-.71L74,8.4a6.93,6.93,0,0,0-3.79-1c-3.58,0-7.52,2.36-7.52,6.68a6.46,6.46,0,0,0,6.51,6.63c3.47,0,5-1.76,5-1.87l1.09,1.87H76V16a.64.64,0,0,1,.64-.64h1.13v-.74H70.89Z"/><path class="cls-1" d="M12.35,13.88H12v-.25h.31C14,13.63,16,12.39,16,10.86V10.6c0-1.59-1.6-2.88-5.25-2.88h-8v.74H4a.76.76,0,0,1,.76.76v9.51a.88.88,0,0,1-.88.88H2.71v.73H13.27a3.26,3.26,0,0,0,3.27-3.26c0-2.12-2.72-3.2-4.19-3.2M8.07,9.2a.74.74,0,0,1,.73-.74h.91c1.89,0,2.79.92,2.79,2.06v.56c0,1.33-.77,2.4-2.88,2.4H8.07Zm2.46,10.41H9a.92.92,0,0,1-.92-.92V14.22H9.62c2,0,3.44,1,3.45,2.86a2.54,2.54,0,0,1-2.54,2.53"/><path class="cls-1" d="M118.94,9.7l-.41-.58a.61.61,0,0,0,.33-.18.35.35,0,0,0,.1-.26.43.43,0,0,0-.14-.31.64.64,0,0,0-.44-.13h-.76v.07a.23.23,0,0,1,.13,0,.13.13,0,0,1,0,.07v1.2a.67.67,0,0,1,0,.18.13.13,0,0,1-.06.07l-.13,0v.06h.72V9.88a.36.36,0,0,1-.18,0,.11.11,0,0,1,0-.1v-.6h.15l.58.79h.36V9.88l-.11,0a.69.69,0,0,1-.13-.15M118.43,9a1,1,0,0,1-.34,0v-.7l.16,0a.41.41,0,0,1,.29.1.4.4,0,0,1,.11.27.33.33,0,0,1-.06.19.42.42,0,0,1-.16.13"/><path class="cls-1" d="M119.77,8.17a1.51,1.51,0,0,0-.63-.62,1.69,1.69,0,0,0-.83-.22,1.66,1.66,0,0,0-.83.22,1.59,1.59,0,0,0-.64.62,1.74,1.74,0,0,0-.22.85,1.7,1.7,0,0,0,.22.84,1.59,1.59,0,0,0,.63.63,1.65,1.65,0,0,0,.84.22,1.7,1.7,0,0,0,.84-.22,1.59,1.59,0,0,0,.63-.63A1.7,1.7,0,0,0,120,9a1.75,1.75,0,0,0-.23-.85m-.12,1.62a1.53,1.53,0,0,1-1.34.77,1.5,1.5,0,0,1-.77-.2,1.42,1.42,0,0,1-.57-.57,1.54,1.54,0,0,1-.21-.77,1.51,1.51,0,0,1,.21-.77,1.47,1.47,0,0,1,.58-.58,1.6,1.6,0,0,1,.76-.2,1.63,1.63,0,0,1,.76.2,1.45,1.45,0,0,1,.57.58,1.51,1.51,0,0,1,.21.77,1.64,1.64,0,0,1-.2.77"/><path class="cls-1" d="M110.31,7.72h-8v.74h1.27a.76.76,0,0,1,.76.76v9.51a.87.87,0,0,1-.88.88h-1.15v.73h7.37v-.73h-1.09a.92.92,0,0,1-.92-.92V14.94h1.42c6.07,0,7-1.95,7-3.48V11.2c0-1.59-.82-3.48-5.77-3.48m2.17,3.92c0,1.62-1.16,2.4-3.27,2.4h-1.56V9.2a.74.74,0,0,1,.74-.74h1.1c1.88,0,3,.54,3,2.06Z"/><path class="cls-1" d="M91.58,19.38c-.85,0-1-1.31-1.18-2.2a3.62,3.62,0,0,0-2.57-3h-.18v-.25H88c1.66,0,3.66-1.23,3.66-3.06V10.6c0-1.59-2-2.88-5.53-2.88h-8v.74h1.27a.76.76,0,0,1,.76.76v9.51a.88.88,0,0,1-.88.88H78.07v.73h7.38v-.73h-1.1a.92.92,0,0,1-.92-.92V14.3h1.16A2.34,2.34,0,0,1,87,16.39v1.44a2.84,2.84,0,0,0,2.84,2.84h.69a2.84,2.84,0,0,0,2.84-2.84v-.24H92.5s0,1.79-.92,1.79M85,13.48H83.43V9.2a.74.74,0,0,1,.74-.74h.91C87,8.46,88,9.38,88,10.52v.56c0,1.33-.92,2.4-3,2.4"/><path class="cls-1" d="M93.91,8.46H95a1,1,0,0,1,1,1V18.6a1,1,0,0,1-1,1H93.91v.73h7.55v-.73h-1.1a1,1,0,0,1-1-1V9.48a1,1,0,0,1,1-1h1.1V7.72H93.91Z"/><rect class="cls-2" width="119.64" height="2.03"/><rect class="cls-1" y="25.55" width="119.64" height="2.03"/></g></g></svg>