<svg xmlns="http://www.w3.org/2000/svg" width="106.479" height="109.007" viewBox="0 0 106.479 109.007">
  <g id="Group_151" data-name="Group 151" transform="translate(-405.99 -15.114)">
    <path id="Path_57" data-name="Path 57" d="M455.88,83.4c-7.939.509-8.934,7.692-4.866,10.867a8.746,8.746,0,0,0,3.512,1.588,2.213,2.213,0,0,0,1.371.084,14.242,14.242,0,0,0,2.217-1.186c1.813-1.166,4.167-3.245,4.889-5.318C464.4,85.417,459.594,83.158,455.88,83.4Z" transform="translate(-7.209 -11.529)" fill="#ea5018" fill-rule="evenodd"/>
    <path id="Path_58" data-name="Path 58" d="M405.994,71.084a7.928,7.928,0,0,0,1.085,3.376,8.871,8.871,0,0,0,8.73,4.674c7.984-1.092,9.7-9.1,11.749-15.366,1.1-3.377,2.422-6.373,5.112-8.442a9.618,9.618,0,0,1,2.959-1.6,10.533,10.533,0,0,1,7.508.7c.042.554-.1,1.4-.077,2.063.028.716.142,1.321.214,2-4.53-.075-7.891,1.152-9.165,4.531-1.021,2.709.084,5.809,1.408,8.136l1.02,1.559a2.793,2.793,0,0,1,.363.529,12.616,12.616,0,0,0-5.853,16.1,37.016,37.016,0,0,0,4.391,7.625c1.394,2.054,3.441,5.017,4.1,7.923.688,3.058-.53,6.774-3.2,8.306a6.572,6.572,0,0,1-5,.5c-4.261-1.3-5.059-7.535-2.213-9.521,1.288-.9,3.57-.669,3.548,1.423a1.745,1.745,0,0,1-.366,1.1c-.526.768-.014,1.6,1.124.628.966-.822.756-2.469.216-3.4a2.908,2.908,0,0,0-1.6-1.366,4.561,4.561,0,0,0-5.807,2.573,7.323,7.323,0,0,0,1.714,8.817c3.4,2.742,10,1.966,12.616-2.223a10.2,10.2,0,0,0,1.557-4.482c.437-5-2.531-9.169-5.05-12.788a43.556,43.556,0,0,1-2.371-3.666c-1.469-2.631-2.849-5.823-1.983-9.518a8.675,8.675,0,0,1,2.071-3.91,11.917,11.917,0,0,1,3.433-2.612c.486.237,1.394,1.353,2.2,1.717a6.9,6.9,0,0,1,2.081-3.358,8.63,8.63,0,0,1,3.475-1.958,11.66,11.66,0,0,1,8.944,1.124c2.478,1.587,3.156,4.468,1.234,7.407a13.586,13.586,0,0,1-2.592,2.841,14.631,14.631,0,0,1-1.595,1.15c-.663.431-1.315.664-1.779.955a17.081,17.081,0,0,0,4.63-.519c2.547-.7,4.882-1.811,6.117-4.2,2.1-4.067-.534-8.226-2.468-11.509-1.186-2.014-2.76-4.554-2.865-7.523a6.822,6.822,0,0,1,3.747-6.586c2.9-1.24,6.222-.468,7.65,1.515,1.74,2.414.868,6.106-1.175,7.32-2.005,1.19-4.776-.214-4.308-2.5.3-1.464,2.2-1.577,1.243-.294a1.417,1.417,0,0,0,1.464,2.178c1.4-.167,2.233-1.681,2.259-3.225a4.528,4.528,0,0,0-1.72-3.709,4.952,4.952,0,0,0-4.4-.386,4.507,4.507,0,0,0-1.532,1.158,5.437,5.437,0,0,0-1.011,1.732,6.343,6.343,0,0,0,.029,4.575c.779,2.382,2.547,4.977,3.771,7.206,1.694,3.086,2.768,7.068.721,10.628a9.525,9.525,0,0,1-4.274,3.957,17.613,17.613,0,0,1-9.231,1.534c-.612-.066-.586-.173-1.087.112a16.32,16.32,0,0,1-2.871,1.243,31.612,31.612,0,0,1-3.19.924c-.258.058-.968.145-1.152.218.441.7,2.6,1.676,3.285,1.923a15.448,15.448,0,0,0,4.451.834c.02.4-.14,1.16-.17,1.632a12.49,12.49,0,0,0,5.166,11.026,18.685,18.685,0,0,0,8.042,2.874c4.241.641,8.592.7,12.293,2.252,3.358,1.407,6,5.525,4.554,9.177a6.614,6.614,0,0,1-3.633,3.612c-4.087,1.444-9-2.98-7.276-6.125a1.933,1.933,0,0,1,3.382-.344c.343.452.185.913.664,1.207,1.211.744,1.469-3.129-1.958-3.417-1.98-.167-3.624,1.678-3.967,3.308-.761,3.619,3.089,7.563,6.773,7.666,4.332.336,8.735-4.8,8.265-9.605a9.894,9.894,0,0,0-3.007-5.927,13.363,13.363,0,0,0-5.905-3.1c-6.189-1.69-12.633-.319-17.951-4.439a10.016,10.016,0,0,1-2.124-2.373c-1.378-2.3-1.6-4.4-1.122-7.442a15.684,15.684,0,0,0,4.119-.854c.073.135.272,1.1.336,1.339,1.52,5.605,6.044,8.186,11.5,4.766.766-.48,3.3-2.429,3.734-3.295.189.088.992,1.03,1.423,1.406a14.065,14.065,0,0,0,1.59,1.264,12.548,12.548,0,0,0,13.231.352,22.313,22.313,0,0,0,3.3-2.349l2.939-2.767c.508-.416,2.844-2.914,3.916-3.874,2.836-2.542,6.449-4.713,10.7-2.958a5.889,5.889,0,0,1,2.993,2.657,6.808,6.808,0,0,1,.545,4.773,6.212,6.212,0,0,1-7.142,3.856c-2.871-.813-3.25-4.056-.94-4.584a1.681,1.681,0,0,1,1.191.108.861.861,0,0,0,1.05-.152c.071-1.036-1.427-1.682-2.643-1.346-3.393.938-3.206,5.884.2,7.388a7.55,7.55,0,0,0,8.993-2.366,8.05,8.05,0,0,0,1.134-3.051V89.527c-.089-.2-.257-1.39-.372-1.772a9.692,9.692,0,0,0-1.847-3.476l-1.073-1.068a6.075,6.075,0,0,0-.6-.444,7.74,7.74,0,0,0-1.4-.74c-6.223-2.506-11.319,1.754-14.656,5.053-.615.608-1.513,1.678-2.112,2.168-.355.29-.735.734-1.071,1.07l-2.2,2.028c-.365.308-.8.641-1.212.93a14.643,14.643,0,0,1-2.687,1.538,9.285,9.285,0,0,1-9.868-1.154,11.778,11.778,0,0,1-2.106-2.107c.1-.223.367-.608.507-.854a13.861,13.861,0,0,0,1.2-2.807c.359.16.717.365,1.108.563a12.245,12.245,0,0,0,1.161.487c4.877,1.838,9.037.056,10.151-5.2a17.13,17.13,0,0,0-.08-6.119,15.471,15.471,0,0,0,4.558-.873,12.561,12.561,0,0,0,5.955-4.857c4.766-7.29-.254-16.135,1.446-23.574a8.488,8.488,0,0,1,3.276-4.845,6.23,6.23,0,0,1,9.074,1.927,6.23,6.23,0,0,1-2.063,7.663c-2.321,1.423-5.154-.483-3.667-2.623.267-.384.345-.367.754-.621a.829.829,0,0,0,.4-.9,1.29,1.29,0,0,0-1.249-.116,1.833,1.833,0,0,0-.925.609c-1.486,1.494-.842,4.687,2.17,5.556a4.948,4.948,0,0,0,4.605-1.3,7.553,7.553,0,0,0,1.441-1.689c4.891-7.82-5.924-14.568-12.339-9.869A9.435,9.435,0,0,0,495.8,45.36c-4.547,8.434,2.749,18.4-2.6,26.323a8.722,8.722,0,0,1-3.331,2.869,11.639,11.639,0,0,1-5.059,1.095c-.28-.52-.485-1.317-.814-1.939-.2-.382-.894-1.406-.994-1.684a12.847,12.847,0,0,0,4.8-3.216,6.83,6.83,0,0,0,1.62-4.418,3.662,3.662,0,0,0-.331-1.666c-1.985-.249-2.179-.347-3.99.529a10.63,10.63,0,0,0-2.892,2.044,6.789,6.789,0,0,0-.647.617c-.182.2-.4.415-.581.626-.377.453-.746.873-1.112,1.357a46.508,46.508,0,0,0-5.623,9.195c-.355.844-1.467,2.919-.5,3.634.686.505,1.279-.208,1.6-.5.342-.317.817-1.137,1.242-1.173.309.539-.1,1.284-.369,1.661-1.051,1.5-3.135,2.551-3.863.527-.4-1.1.117-2.665.478-3.637.509-1.369,1.062-2.177,1.4-3.014a4.319,4.319,0,0,1-1.884.022c-.962-.1-.573.588-.7,1.307a11.586,11.586,0,0,1-1.1,2.964c-.707,1.322-2.439,3.8-4.615,3.409-2.521-.458-1.661-3.743-.5-5.342a13.389,13.389,0,0,1,1.96-2.1c.357-.343.741-.592,1.094-.936,2.157-2.1,2.537-.557,4.355-.342a2.452,2.452,0,0,0,2.762-1.211c1.095-1.59,2.126-3.3,3.282-4.841.594-.793,1.176-1.523,1.81-2.248a20.45,20.45,0,0,1,2-2.065,17.8,17.8,0,0,1,3.51-2.584c.55-.287.994-.352,1.458-.56-.044-.106,0-.009-.056-.1l-.185-.253c-.082-.1-.172-.185-.263-.284a18,18,0,0,0-4.553-3.423,14.654,14.654,0,0,0,2.408-5.294,12.772,12.772,0,0,0-3.948-11.86c-.162-.148-.313-.315-.477-.455-.349-.3-.663-.571-1.051-.871-3.729-2.892-7.745-4.564-11.35-7.747a8.64,8.64,0,0,1-2.8-4.821,6.747,6.747,0,0,1,1.342-5.975,6.5,6.5,0,0,1,5.52-2.042,6.3,6.3,0,0,1,4.254,3.376c2.156,4.449-2.043,7.348-3.575,4.672-.48-.839-.1-.936-.2-1.616-.086-.635-.586-.8-.957-.332-1.427,1.8.5,4.127,2.363,4.285a4.49,4.49,0,0,0,2.932-.858c2.675-1.915,1.936-6.112.479-8.348a6.749,6.749,0,0,0-1.9-1.939c-1.32-.919-1.936-.687-2.737-1.056h-1.8a12.329,12.329,0,0,0-3.347,1.108,8.517,8.517,0,0,0-4.723,8.552c.283,4.963,4.468,8.275,7.474,10.187,3.738,2.379,7.471,4.052,10.277,7.394a9.537,9.537,0,0,1,1.581,10.1,11.439,11.439,0,0,1-1.668,2.725,13.622,13.622,0,0,0-3.921-.8c.005-.317.3-1.307.375-1.759a9.649,9.649,0,0,0-.5-5.691,6.387,6.387,0,0,0-5.185-3.6c-3.775-.469-8.522,1.349-11.35,3.885l-1.1,1.078c-.209-.169-.905-1.181-1.237-1.487-.2-.18-.265-.274-.434-.443-2.02-2.018-4.7-3.475-7.795-2.355-2.517.911-4.166,3.421-5.145,5.72-.19.445-.339.847-.5,1.316a13.2,13.2,0,0,1-.424,1.386,10.965,10.965,0,0,1-1.051-.375,12.274,12.274,0,0,0-8.43,0c-9.387,3.334-8.97,14.694-12.918,20.885a8.232,8.232,0,0,1-2.748,2.9,8.518,8.518,0,0,1-4.322,1.325,5.723,5.723,0,0,1-4.057-1.587c-.13-.136-.228-.233-.357-.357a3.049,3.049,0,0,1-.329-.386,5.458,5.458,0,0,1-.039-7.168,5.959,5.959,0,0,1,3.425-2.228c2.881-.549,4.816,2.287,2.7,3.8-.684.487-1.764.119-1.789,1.022.083.388,1.449,1.065,2.732.086a3.5,3.5,0,0,0,.166-5.277c-3.16-3.117-8.149-.517-9.81,2.768a6.245,6.245,0,0,0-.664,3.245Zm38.539-9.369.445-.667c.667-1.076,1.4-2.229,2.139-3.236a23.013,23.013,0,0,1,2.98-3.5l.578-.52a11.536,11.536,0,0,1,1.843-1.337c2.845-1.635,4.382.757,2.862,1.326-1.193.445-1.717-1.009-4.883,1.372a14.042,14.042,0,0,0-2.122,2.158,30.039,30.039,0,0,0-1.815,2.522,27.046,27.046,0,0,0-2.967,5.647c-.446,1.4.457,2.255,1.662.564a12.491,12.491,0,0,1,1.692-2.643,27.286,27.286,0,0,1,2.271-2.009c1.14-.753,1.809.666,3.418.237,1.035-.276.8.459.231.721-.822.376-1.316-.031-1.894.14-.177.214-.141.931-.24,1.295a8.236,8.236,0,0,1-1.554,3c-.644.76-1.951,1.7-3.07.964a1.357,1.357,0,0,1-.553-.929,2.955,2.955,0,0,1-1.575,1.2c-1.179.18-1.274-1.1-1.418-1.362-.386.34-.5.7-1.11,1.023-1.267.674-3.032-.345-1.459-3.161a9.763,9.763,0,0,1,1.818-2.409c.807-.77,1.826-1.454,2.719-.395Zm4.825.794c1.72-.658-.658,4.766-2.164,4.381-1.292-.331-.367-1.873.081-2.5a6.539,6.539,0,0,1,2.084-1.878Zm-6.179-.218a.417.417,0,0,1,.493.4,4.756,4.756,0,0,1-.775,2.1c-.37.706-.979,1.932-1.876,1.974C439.268,66.841,442.069,62.555,443.178,62.291Z" transform="translate(0 0)" fill="#ea5018" fill-rule="evenodd"/>
    <path id="Path_59" data-name="Path 59" d="M435.51,40.935c.149.276.257,1.633,1.415,1.631a2.725,2.725,0,0,0,1.9-1.221.078.078,0,0,1,.02.043c0,.024.015.032.018.044.137.435.051.879,1,1.155,1.679.49,3.147-1.589,3.9-2.837a12.293,12.293,0,0,0,1.419-3.188c.125-.71.017-1.537-.474-1.785-.681-.345-1.334.477-1.676.476a26.178,26.178,0,0,1,1.975-3.424,16.967,16.967,0,0,1,3-3.86,9.53,9.53,0,0,1,2.469-1.646,3.743,3.743,0,0,1,2.144-.5c3.141.578,2.659-1.474,1.58-1.966-1.577-.722-3.683.573-4.852,1.556a24.077,24.077,0,0,0-4.582,5.02c-1.838,2.532-3.59,5.756-5.217,8.448-.339.56-1.983,3.425-2.782,2.133-.706-1.143.624-3.221,1-4.131.815-1.955-.786-2.938-2.259-1.984-1.682,1.089-4.728,5.095-3.427,6.9.633.878,1.8.766,2.758-.16a8.162,8.162,0,0,0,.662-.706Zm8.231-5.006c.5.725-.6,2.755-.947,3.342-.319.548-1.451,2.62-2.358,2.088s.743-2.842.971-3.2c.395-.619,1.515-2.322,2.334-2.229Zm-7.6-.082c.744-.235.763.649.49,1.38a11.138,11.138,0,0,1-.738,1.512c-.494.866-1.071,2.229-2.171,2.325-1.611.141.008-2.519.242-2.881C434.419,37.492,435.41,36.08,436.146,35.847Z" transform="translate(-4.355 -1.442)" fill="#732432" fill-rule="evenodd"/>
    <path id="Path_60" data-name="Path 60" d="M432.343,17.649a17.183,17.183,0,0,0-9.377,4.034c-4.6,3.58-9.9,10.535-9.475,16.236A7.474,7.474,0,0,0,417.163,44c4.477,2.575,10.313-1.106,10.322-2.567a.935.935,0,0,0-1.444-.657c-.888.476-1.641,2.456-4.583,2.763a5.988,5.988,0,0,1-3.9-.977c-1.926-1.224-3.069-3.713-2.51-6.966a20.887,20.887,0,0,1,3.892-8.283,26.382,26.382,0,0,1,6.319-5.918,15.313,15.313,0,0,1,7.143-2.668c1.661-.1,2.99.089,3.842,1.034s.647,2.774.028,3.812c-.4.667-.67.684-1.295,1.119-2.191,1.524.458,3.437,2.162.627,1.178-1.946,1.872-5.62-.647-6.96A7.955,7.955,0,0,0,432.343,17.649Z" transform="translate(-1.263 -0.424)" fill="#732432" fill-rule="evenodd"/>
    <path id="Path_61" data-name="Path 61" d="M457.91,38.643c.426.094.391-.2.866-.587.253-.206.794-.451,1.158-.121.749.677-1.364,4.682-1.841,5.584-.152.287-.519.783-.431,1.134.826.442,1.459-.771,1.735-1.31.719-1.4,1.789-4.328,2.852-5.107.294-.216.978-.523,1.1.016.188.8-1.508,3.677-1.784,4.575-.564,1.838,1,2.355,2.288,1.684a3.028,3.028,0,0,0,.922-.741l.148.2a1.408,1.408,0,0,0,.182.2,1.553,1.553,0,0,0,1.679.309,4.887,4.887,0,0,0,1.607-1.343c.165.721.236,1.021.7,1.389,1.257,1,3.549-1.454,3.081-2.536-.364-.031-.818.755-1.326,1.223-.63.581-1.343.3-1.4-.631-.094-1.429.987-2.727,1.355-3.918a1.494,1.494,0,0,0-.676-1.811,2.045,2.045,0,0,0-1.956.388,10.851,10.851,0,0,0-3.324,4.578,6.166,6.166,0,0,1-.855,1.779c-.613.725-1.463.578-1.235-.46.286-1.3,2.458-4.724,1.894-5.858-.517-1.04-1.851-.329-2.586.332-.239.214-.376.468-.642.679,0-.623-.041-1.028-.436-1.3a1.8,1.8,0,0,0-1.433-.193c-.7.185-1.781,1.031-1.641,1.843Zm11.082-.588a.477.477,0,0,1,.677.413,2.1,2.1,0,0,1-.17.982,16.549,16.549,0,0,1-.74,1.509c-.46.9-1.122,2.221-2.179,2.309C464.473,43.443,467.768,38.468,468.992,38.055Z" transform="translate(-8.725 -3.651)" fill="#732432" fill-rule="evenodd"/>
    <path id="Path_62" data-name="Path 62" d="M451.9,43.151c.113,1.215,1.029,2.077,2.229,1.358.553-.331,1.892-1.5,1.528-2.528-.633-.007-1.394,2.069-2.33,1.449-.842-.558-.172-2.284.14-2.985.334-.75,1.193-1.9.777-2.867-.515-1.2-1.735-.951-2.663-.282a10.752,10.752,0,0,0-3.3,4.661c-.689,2.287,1.191,3.647,3.067,1.749.19-.193.273-.388.549-.556Zm.569-5.089c.687-.246.836.528.521,1.357a11.461,11.461,0,0,1-.739,1.51c-.494.888-1.053,2.216-2.157,2.336-1.618.178-.059-2.454.2-2.864A7.008,7.008,0,0,1,452.468,38.062Z" transform="translate(-7.118 -3.652)" fill="#732432" fill-rule="evenodd"/>
    <path id="Path_63" data-name="Path 63" d="M453.045,98.495a9.871,9.871,0,0,1-3.71-1.893,4.864,4.864,0,0,1-.424-.4,7,7,0,0,1-2.085-4.338,9.174,9.174,0,0,0-1.747,5.022,6.011,6.011,0,0,0,.1,1.077c.1.6.021.423.495.654a4.681,4.681,0,0,0,1.533.709A11.829,11.829,0,0,0,453.045,98.495Z" transform="translate(-6.602 -12.963)" fill="#ea5018" fill-rule="evenodd"/>
    <path id="Path_64" data-name="Path 64" d="M481.879,86.737c-1.4.33-5.869,5.071-3.255,6.089,1.547.6,3.358-3.068,3.77-4.333C482.58,87.922,482.791,86.523,481.879,86.737Z" transform="translate(-12.131 -12.093)" fill="#ea5018" fill-rule="evenodd"/>
  </g>
</svg>