<svg xmlns="http://www.w3.org/2000/svg" width="107.758" height="65.67" viewBox="0 0 107.758 65.67"><defs><style>.a{fill:#a80978;}.b{fill:#621b6b;}.c{fill:#1c5b2b;}.d{fill:#5bb0e3;}.e{fill:#a8d1ed;}.f{fill:#82ae2c;}.g{fill:#006cb7;}.h{fill:#f37111;}.i{fill:#b178b1;}.j{fill:#f1a600;}.k{fill:#ec4219;}.l{fill:#509733;}.m{fill:#83af2b;}.n{fill:#fff;}</style></defs><g transform="translate(-459.12 -236.257)"><path class="a" d="M636.306,273.1s-.007.016-.023.045c-5.138,1.256-8.049,3.784-11.167,6.47q-2.649-2.856-5.279-5.312a29.461,29.461,0,0,0,1.657-4.354c3.5,2.3,7.914,3.728,14.811,3.15" transform="translate(-74.236 -15.732)"/><path class="b" d="M629.648,282.415q1.462,1.565,2.922,3.251a35.1,35.1,0,0,0,8.245-9.721c-5.138,1.256-8.049,3.784-11.167,6.47" transform="translate(-78.768 -18.531)"/><path class="c" d="M540.118,281.362c-.01-.026-.017-.049-.026-.075.013.2.036.406.062.612a.559.559,0,0,1-.023-.1c-.01-.036-.02-.075-.03-.111q-.118-.491-.218-.972c-3.569-9.312-13.184-11.9-23.461-11.395a22.975,22.975,0,0,0-.73,7.163c9.1,2.192,16.934,5.927,22.12,8.386a62.9,62.9,0,0,0,7.019,2.842,7.746,7.746,0,0,1-4.714-6.352" transform="translate(-26.113 -15.411)"/><path class="d" d="M597.544,255.022a72.111,72.111,0,0,1,5.926,4.366c-.2-3.509-2.123-7.323-6.92-11.2a18.562,18.562,0,0,0-2.175-1.548,10.94,10.94,0,0,1,1.86,3.362c.508,1.151,1.412,2.274,1.412,3.614a8.241,8.241,0,0,1-.05.949c-.017.15-.033.3-.053.455" transform="translate(-62.474 -4.849)"/><path class="d" d="M533.312,236.815a35.878,35.878,0,0,0-6.6,6.617,50.777,50.777,0,0,1,8.478-1.6c8.818-3.957,17.789-4.347,24.639-1.665a49.089,49.089,0,0,0-26.521-3.352" transform="translate(-31.223)"/><path class="e" d="M594.153,246.428c.036.036.076.072.116.111l0,0a18.407,18.407,0,0,1,2.176,1.548c4.8,3.876,6.716,7.689,6.92,11.2q2.293,1.87,4.606,4.033a29.429,29.429,0,0,0,1.657-4.354c-5.4-3.539-8.634-9.129-15.478-12.54" transform="translate(-62.372 -4.749)"/><path class="e" d="M466.978,261.325l.159-.075s.01,0,.017-.01c10.958-8.327,21.519-14.447,31.969-17.319a35.888,35.888,0,0,1,6.6-6.616,58.336,58.336,0,0,0-19.912,7.133c-7.565,4.288-14.4,9.528-18.83,16.887" transform="translate(-3.629 -0.49)"/><path class="f" d="M467.106,282.222c-.053.046-.105.085-.158.124l-.037.01c.013-.019.023-.039.037-.059l.158-.075" transform="translate(-3.598 -21.461)"/><path class="g" d="M582.094,252.549a4.011,4.011,0,0,1,1.43.664c-.582-.262-1.159-.507-1.741-.736.089.017.172.036.258.059.017,0,.037.01.053.013" transform="translate(-56.659 -7.573)"/><path class="h" d="M588.087,266.728a72.039,72.039,0,0,0-5.926-4.366c-.4,2.973-1.964,6.581-8.026,7.578-.013,0-.023,0-.04,0-1.433.219-2.883.353-3.622.428-3.493.331-9.383,1.7-9.4,7.166,0,.2.01.4.026.6a7.747,7.747,0,0,0,4.714,6.352.308.308,0,0,0,.043.017q2.075.687,4.038,1.164h.009l.271-.026s.006,0,.006,0a28.719,28.719,0,0,0,6.29-2.446c3.414-1.862,12.09-8.354,11.618-16.469" transform="translate(-47.091 -12.189)"/><path class="h" d="M511.45,266.112c1.013-.108,2.028-.186,3.031-.235a27.051,27.051,0,0,1,1.37-3.994,58.9,58.9,0,0,0-4.4,4.229" transform="translate(-24.171 -11.965)"/><path class="h" d="M519.629,254.8a63.619,63.619,0,0,1,6.181-4.736,43.854,43.854,0,0,1,6.111-3.349,50.8,50.8,0,0,0-8.479,1.6,31.159,31.159,0,0,0-3.813,6.486" transform="translate(-27.949 -4.884)"/><path class="g" d="M570.4,243.714l0,0-.115-.111a17.7,17.7,0,0,0-3.169-1.512c-6.85-2.682-15.822-2.293-24.64,1.665a44.014,44.014,0,0,1,21.147,3.067.012.012,0,0,1,.007,0c.58.229,1.159.474,1.74.736a57.6,57.6,0,0,1,8.2,4.533c.019-.154.036-.3.053-.455a8.254,8.254,0,0,0,.049-.949,10.163,10.163,0,0,0-3.272-6.977" transform="translate(-38.501 -1.921)"/><path class="i" d="M595.909,270.552c.472,8.115-8.2,14.607-11.618,16.469a28.767,28.767,0,0,1-6.286,2.446c7.841-.814,17.554-4.493,22.51-14.882q-2.312-2.168-4.606-4.033" transform="translate(-54.914 -16.013)"/><path class="j" d="M491.059,260.432a58.894,58.894,0,0,1,4.4-4.229,31.125,31.125,0,0,1,3.813-6.486c-10.45,2.871-21.011,8.991-31.969,17.318a78.825,78.825,0,0,1,23.755-6.6" transform="translate(-3.78 -6.285)"/><path class="j" d="M574.288,259.961a4.919,4.919,0,0,0-.832-6.689,2.213,2.213,0,0,0-.21-.187c-.582-.262-1.16-.507-1.74-.736a.011.011,0,0,0-.007,0c-.026-.006-.056-.01-.085-.016a6.469,6.469,0,0,0-3.767.353,12.325,12.325,0,0,0-6.8,7.088,17,17,0,0,0-.813,2.581c0,.006,0,.013,0,.02a.365.365,0,0,1-.013.062,21.709,21.709,0,0,0-.436,6.244.577.577,0,0,0,.007.076c.01.187.02.376.04.566a30.189,30.189,0,0,0,.518,3.434c.073.187.142.376.208.569-.337-4.808,2.977-7.817,6.121-9.547a21.02,21.02,0,0,1,3.226-1.423c2.822-.949,4.008-1.613,4.582-2.391" transform="translate(-46.38 -7.446)"/><path class="k" d="M573.936,253.858a2.292,2.292,0,0,1,.21.186,4.92,4.92,0,0,1,.832,6.689c-.575.778-1.76,1.442-4.582,2.391a21.044,21.044,0,0,0-3.226,1.422c-3.143,1.73-6.458,4.739-6.121,9.548.009.026.016.049.026.075-.017-.2-.026-.4-.026-.6.02-5.462,5.909-6.836,9.4-7.166.739-.075,2.188-.21,3.622-.428.017,0,.026,0,.039,0,6.062-1,7.627-4.605,8.027-7.578a57.518,57.518,0,0,0-8.2-4.533" transform="translate(-47.071 -8.218)"/><path class="k" d="M539.985,265.994a.521.521,0,0,1-.007-.075,21.709,21.709,0,0,1,.436-6.244.413.413,0,0,0,.013-.062c0-.007,0-.013,0-.02a16.912,16.912,0,0,1,.812-2.581,12.32,12.32,0,0,1,6.8-7.088,6.468,6.468,0,0,1,3.766-.353c.03.007.06.01.086.017a44.019,44.019,0,0,0-21.146-3.068,43.886,43.886,0,0,0-6.111,3.349,63.62,63.62,0,0,0-6.18,4.736,27.1,27.1,0,0,0-1.371,3.994c10.278-.5,19.892,2.083,23.461,11.4a30.035,30.035,0,0,1-.518-3.434c-.02-.19-.03-.379-.04-.566" transform="translate(-26.773 -4.687)"/><path class="a" d="M605.626,288.082c-5.128,4.422-10.813,9.272-27.878,9.6l-.106.03c14.5,3.516,24.6-1.161,30.906-6.375q-1.461-1.687-2.922-3.251" transform="translate(-54.746 -24.197)"/><path class="l" d="M507.51,269.61a48.158,48.158,0,0,0-4.589,5.642,66.491,66.491,0,0,1,6.891,1.286,22.973,22.973,0,0,1,.73-7.163c-1,.049-2.018.127-3.031.235" transform="translate(-20.232 -15.463)"/><path class="b" d="M600.438,278.117c-4.956,10.388-14.67,14.068-22.511,14.883l-.01,0a.571.571,0,0,1-.08.023c17.066-.324,22.752-5.174,27.879-9.6q-2.649-2.855-5.279-5.312" transform="translate(-54.836 -19.545)"/><path class="m" d="M467.137,276.43c-.053.046-.105.085-.159.124a49.117,49.117,0,0,1,19.341-1.1,48.141,48.141,0,0,1,4.589-5.642,78.823,78.823,0,0,0-23.755,6.6c-.006.006-.013.006-.016.01" transform="translate(-3.629 -15.669)"/><path class="n" d="M643.868,322.955a5.9,5.9,0,0,0-4.363-6.047,19.247,19.247,0,0,0-9.508-.339v0l-2.29.4.664,2.829s1.131-.146,1.409-.194a27.655,27.655,0,0,1,6.816-.3c2.184.14,3.676,1.394,3.8,3.133.076,1.109.017,1.681.017,2.967,0,0-7.905.4-10.462,1.16a5.7,5.7,0,0,0-4.069,5.491c-.206,3.485,1.622,5.9,5.15,6.75a16.593,16.593,0,0,0,7.6-.032c3.5-.784,5.2-2.848,5.241-6.367q.057-4.72,0-9.442m-3.443,9.443c-.06,2.03-.906,3.2-2.947,3.513a20.313,20.313,0,0,1-5.156.134c-1.99-.208-3-1.6-3.005-3.587a3.636,3.636,0,0,1,.325-1.771,1.63,1.63,0,0,1,1.018-.806,10.442,10.442,0,0,1,1.316-.351,72.939,72.939,0,0,1,8.456-.94c0,1.246.031,2.591-.006,3.806" transform="translate(-77.018 -37.296)"/><path class="n" d="M556.967,316.648c-.107-.025-.227-.047-.355-.07a12.752,12.752,0,0,0-3.316-.35h-.165a12.756,12.756,0,0,0-3.316.35c-.129.023-.249.046-.355.07a7.393,7.393,0,0,0-5.924,6.323,69.71,69.71,0,0,0,0,9.512,7.394,7.394,0,0,0,5.925,6.323c.082.019.164.032.245.05a11.633,11.633,0,0,0,3.373.39h.279a11.635,11.635,0,0,0,3.373-.39c.081-.018.163-.031.245-.05a7.394,7.394,0,0,0,5.925-6.323,69.887,69.887,0,0,0,0-9.512,7.4,7.4,0,0,0-5.925-6.323m2.63,15.1a4.058,4.058,0,0,1-3.688,3.984,20.714,20.714,0,0,1-2.586.24v.006h-.22v-.006a20.707,20.707,0,0,1-2.586-.24,4.058,4.058,0,0,1-3.688-3.984q-.1-1.866-.109-3.741h0v-.393q0-1.96.112-3.914a4.058,4.058,0,0,1,3.688-3.985,20.717,20.717,0,0,1,2.586-.24h.21a20.719,20.719,0,0,1,2.586.24,4.059,4.059,0,0,1,3.688,3.985q.109,1.951.112,3.914v.393h0q-.007,1.873-.109,3.741" transform="translate(-38.915 -37.338)"/><path class="n" d="M520,324.363a6.854,6.854,0,0,0-5.665-6.96,15.713,15.713,0,0,0-3.486-.43v0H510.3v0a15.7,15.7,0,0,0-3.443.428,6.854,6.854,0,0,0-5.665,6.96c-.039,2.047-.03,15.213-.03,15.213H504.6s-.007-6.045,0-7.909c.011-2.369-.026-4.738.048-7.105.079-2.484,1.126-3.841,3.587-4.166a15.507,15.507,0,0,1,2.215-.123h.29a15.5,15.5,0,0,1,2.215.123c2.462.325,3.509,1.682,3.587,4.166.075,2.367.038,4.737.048,7.105,0,.908,0,1.815,0,2.723h0v5.187h3.439v-5.187h-.011c0-3.643.011-8.457-.019-10.026" transform="translate(-19.419 -37.685)"/><path class="n" d="M600.84,318.859h0q-1.94,7.483-3.89,14.964a10.279,10.279,0,0,1-.319,1.064,2.117,2.117,0,0,1-2.264,1.7h-.2a2.117,2.117,0,0,1-2.264-1.7,10.416,10.416,0,0,1-.319-1.064q-1.949-7.482-3.889-14.964l-.449-1.828h-3.455l.464,1.7c1.365,5.373,2.7,10.755,4.145,16.106.982,3.629,2.377,4.7,5.769,4.731h.2c3.393-.035,4.787-1.1,5.768-4.731,1.452-5.363,2.787-10.756,4.155-16.141l.454-1.666h-3.455Z" transform="translate(-57.587 -37.714)"/><path class="n" d="M474.809,329.41l3.046-.508v-2.822a28.57,28.57,0,0,0-.117-2.95,7.147,7.147,0,0,0-4.914-6.275,13.589,13.589,0,0,0-5.656-.583c-4.547.316-7.285,2.591-7.824,7.05a46.071,46.071,0,0,0,0,8.993,6.786,6.786,0,0,0,5.752,6.4c4.441.878,7.52.231,12.393-.8l-.593-3.037s-1.174.347-1.593.445a22.833,22.833,0,0,1-7.705.624c-2.091-.229-4.084-.853-4.783-3.077a7.985,7.985,0,0,1-.22-1.317l11.445-2,.772-.135m-12.373-1c.014-2.475.015-6.977,2.133-8.2a7.843,7.843,0,0,1,7.909-.068c2.344,1.259,2.2,6.126,2.2,6.126l-6.607,1.154-5.635.984" transform="translate(0 -37.332)"/></g></svg>