<svg xmlns="http://www.w3.org/2000/svg" viewBox="0 0 120 19.35"><defs><style>.cls-1,.cls-2{fill:#f7d30f;}.cls-1{fill-rule:evenodd;}</style></defs><g id="Layer_2" data-name="Layer 2"><g id="Layer_1-2" data-name="Layer 1"><path class="cls-1" d="M118.37,3.55A1.59,1.59,0,0,0,120,2a1.64,1.64,0,0,0-3.27,0,1.59,1.59,0,0,0,1.64,1.58M117.05,2a1.31,1.31,0,1,1,2.62,0,1.31,1.31,0,1,1-2.62,0m1,.12h.32l.49.79h.32l-.54-.8a.48.48,0,0,0,.49-.5c0-.36-.22-.52-.66-.52h-.71V2.88H118Zm0-.23V1.3h.38c.19,0,.4,0,.4.26s-.21.3-.45.3Z"/><polygon class="cls-1" points="31.76 4.55 35.48 4.55 35.48 0.51 23.5 0.51 23.5 4.55 27.26 4.55 27.26 18.84 31.76 18.84 31.76 4.55"/><path class="cls-1" d="M100.8.45H90.33v4h7.81L90.75,15.63,86.25,3h0a3.48,3.48,0,0,0-6.7,0h0L75.09,15.15,73.36,2.94h0a2.86,2.86,0,0,0-5.47-.75h0l-3.06,8.06L62,2.34h0A2.83,2.83,0,0,0,59.26.45a2.86,2.86,0,0,0-2.8,2.28h0L53.89,18.78h4.47L59.84,8.23l3.66,9.63a1.3,1.3,0,0,0,2.47.07h0l3.85-9.71s.67,5.58.89,7.44c.1.77.32,3.64,4.25,3.64,3.18.06,4.48-2.81,4.75-3.72h6.22c.13.92,1.16,3.72,3.75,3.72H103.8V14.74H96.51s5.21-7.4,6.76-10.08c1.29-2.23.11-4.21-2.47-4.21M81,12l1.9-5.82L84.72,12Z"/><rect class="cls-2" x="104.55" y="0.44" width="4.5" height="18.87"/><path class="cls-1" d="M9.86,4.55v-4H2a2,2,0,0,0-2,2V16.8a2,2,0,0,0,2,2H9.86v-4H4.5V11.64H9.57v-4H4.5v-3Z"/><path class="cls-1" d="M114.58,14.8V.44h-4.5V16.82a2.48,2.48,0,0,0,2.48,2.49H120V14.8Z"/><path class="cls-2" d="M44.47,0a9.68,9.68,0,1,0,9.68,9.67A9.67,9.67,0,0,0,44.47,0m0,14.75a5.08,5.08,0,1,1,5.08-5.08,5.07,5.07,0,0,1-5.08,5.08"/><path class="cls-1" d="M22.68,1.49A11.47,11.47,0,0,0,17.19,0c-3.54,0-5.9,2.48-5.9,6.18,0,6.13,7.38,4.43,7.38,7.32,0,1.1-.85,1.81-2.18,1.81a5.86,5.86,0,0,1-4-1.86l-1.94,3.81a10.18,10.18,0,0,0,6.24,2.09c2.58,0,6.56-1.1,6.56-6.55,0-6-7.39-4.66-7.39-7.23,0-1,.82-1.61,2-1.61a4.49,4.49,0,0,1,2.86,1.23Z"/></g></g></svg>