<svg xmlns="http://www.w3.org/2000/svg" viewBox="0 0 288.36 192.56"><defs><style>.cls-1{fill:#fff;stroke:#d1d3d4;stroke-miterlimit:10;stroke-width:0.96px;}.cls-2{fill:#ed1c24;}.cls-3{fill:#231f20;}</style></defs><title>logo-fribaldelivery</title><g id="Layer_2" data-name="Layer 2"><g id="Layer_1-2" data-name="Layer 1"><path class="cls-1" d="M144.18,192.08c-38.72,0-75.05-10.17-102.31-28.64C15.18,145.37.48,121.51.48,96.28S15.18,47.2,41.87,29.12C69.13,10.65,105.46.48,144.18.48s75,10.17,102.32,28.64c26.68,18.08,41.38,41.93,41.38,67.16s-14.7,49.08-41.38,67.16C219.23,181.91,182.9,192.08,144.18,192.08Z"/><path class="cls-2" d="M107.43,78.39h-.18c-1.57,0-5.75-.37-8.61,7.1C89.74,71.75,81,87.73,82.16,87.7c3.25-.1,5.93,2.34,5.93,6.69v28.79h2.79c7.09,0,10.13-6.83,10.13-12.81v-2.62h0V97.5c0-4.57.65-8.64,3.72-8.64h.11c1.47.33,2.74.74,2.74.74,5,1.2,9.92-3.36,9.92-11.2H107.43Z"/><path class="cls-2" d="M209,111.52a10.54,10.54,0,0,1-6.79,2.87,4,4,0,0,1-3.09-1.26A4.37,4.37,0,0,1,198,110q0-5.82,5.83-5.82c2.2,0,3.94,0,5.22.08ZM222,93.17q0-7.56-4.39-11.17a15.72,15.72,0,0,0-8.06-3.42c-.83-.11-3.91-.19-3.91-.19H190.39c0,7.84,6.23,11.93,9.92,11.2,2.45-.48,2.25-1,4.24-1,3,0,4.47,2.31,4.47,5.64v1.91q-3.66-.25-6.52-.26a19.26,19.26,0,0,0-12.22,3.82c-3.28,2.56-4.92,6.29-4.92,11.22a13.65,13.65,0,0,0,3.43,9.14q3.44,4,10.18,4a17.63,17.63,0,0,0,12.31-5.21,2.82,2.82,0,0,0,.38.46,8.92,8.92,0,0,0,7.53,3.89H222V103.56Z"/><path class="cls-2" d="M161.36,113.86a15.74,15.74,0,0,1-4.48-.08V92a8.48,8.48,0,0,1,6.43-3q5.91.18,5.92,11.65c0,9-2.49,12.72-7.87,13.21m5.69-35.3a18.31,18.31,0,0,0-10.17,3.13V71.31c0-5.87-3-12.58-9.95-12.58h-2.75v49.62l0,0v15.11h12.66c11.77,0,15.95-2,19.8-6.13s5.79-9.61,5.79-16.48-1.32-12.31-4-16.31a12.87,12.87,0,0,0-11.44-6"/><path class="cls-2" d="M60.55,81.87c0-3.19,0-10.21-.08-11.83h15.8C81,70,87.63,66.57,87.63,58.73H47.86l-.61.53v63.92h2.87c7.29,0,10.42-7,10.42-13.16V106h0V98.57h7.53c5.48,0,11.35-3.37,11.35-10.87H60.55Z"/><path class="cls-2" d="M240,58.73c-7,0-10,6.71-10,12.58v51.87h2.75c7,0,9.95-6.71,9.95-12.58V58.73Z"/><path class="cls-2" d="M128,72.89a7.35,7.35,0,1,0-7.35-7.35A7.35,7.35,0,0,0,128,72.89"/><path class="cls-2" d="M127.6,78.39h-7V88.91c2.34,0,3.22,1.65,3.22,5v15.3h0v1.2c0,6,3,12.81,10.13,12.81h2.8V89.09a10.51,10.51,0,0,0-2.44-7.31c-1.62-1.79-3.11-3.39-6.7-3.39"/><path class="cls-3" d="M252.28,63.46a1.77,1.77,0,0,1-.09.56,2.28,2.28,0,0,1-.23.47,1.71,1.71,0,0,1-.35.36,1.27,1.27,0,0,1-.42.24,1.19,1.19,0,0,1,.69.82l.27.76a1.26,1.26,0,0,0,.44.65,1,1,0,0,1-.4.3,1.25,1.25,0,0,1-.59.12.68.68,0,0,1-.5-.18,1.78,1.78,0,0,1-.32-.64l-.32-.93a1,1,0,0,0-.27-.41.7.7,0,0,0-.49-.14h-.37v2.22a3.48,3.48,0,0,1-.71.06,3.37,3.37,0,0,1-.7-.06v-6l.06-.07,1.3,0h.84a3.14,3.14,0,0,1,.89.12,1.84,1.84,0,0,1,.68.36,1.5,1.5,0,0,1,.43.61A2,2,0,0,1,252.28,63.46Zm-2.95-.87v1.75H250a1.15,1.15,0,0,0,.46-.11.65.65,0,0,0,.26-.26,1.12,1.12,0,0,0,.09-.5.76.76,0,0,0-.84-.87h-.66Z"/><path class="cls-3" d="M250,69.72a5.22,5.22,0,1,1,3.67-1.53A5.14,5.14,0,0,1,250,69.72Zm0-9.81a4.61,4.61,0,1,0,4.6,4.61A4.62,4.62,0,0,0,250,59.91Z"/><path class="cls-3" d="M143.9,185.61c-37,0-71.57-9.75-97.45-27.45C21.83,141.32,8.28,119.35,8.28,96.28s13.55-45,38.17-61.88C72.33,16.7,106.94,7,143.9,7s71.57,9.75,97.45,27.45C266,51.24,279.52,73.21,279.52,96.28s-13.55,45-38.17,61.88C215.47,175.86,180.86,185.61,143.9,185.61Zm0-176.09c-36.45,0-70.54,9.59-96,27-23.89,16.35-37,37.57-37,59.76S24,139.69,47.9,156c25.46,17.42,59.55,27,96,27s70.54-9.59,96-27c23.89-16.34,37-37.56,37-59.75s-13.16-43.41-37-59.76C214.44,19.11,180.35,9.52,143.9,9.52Z"/><path class="cls-2" d="M143.9,180.74c-36,0-69.63-9.44-94.7-26.6C26,138.24,13.14,117.69,13.14,96.28S26,54.32,49.2,38.41c25.08-17.15,58.71-26.6,94.7-26.6s69.62,9.45,94.7,26.6c23.25,15.91,36.06,36.46,36.06,57.87s-12.81,42-36.06,57.86C213.52,171.3,179.89,180.74,143.9,180.74Zm0-166.35c-35.48,0-68.59,9.29-93.25,26.15C28.13,56,15.72,75.74,15.72,96.28S28.13,136.61,50.65,152c24.66,16.86,57.77,26.15,93.25,26.15s68.59-9.29,93.25-26.15c22.52-15.41,34.93-35.21,34.93-55.74S259.67,56,237.15,40.54C212.49,23.68,179.38,14.39,143.9,14.39Z"/><path class="cls-3" d="M92.21,134.59a2.23,2.23,0,0,0,1.05,2,2.92,2.92,0,0,1-2.72-2.95c0-5,10-9.65,19-9.68,8.83,0,14.44,3.67,14.27,9.78-.26,11.12-21.22,23.85-38.15,23.85-2,0-5.78-.49-5.78-3.45,0-3.64,6.92-8.76,13.91-11.22,0,0-.06.07-.19.17-5.32,2.46-12.24,7.31-12.24,10.73,0,1.4,2.26,1.64,3.57,1.64,14.64,0,36.91-13,36.91-23.79,0-4.2-5.08-6.56-9.9-6.63C102.22,124.88,92.21,131.35,92.21,134.59Zm6,13.42a4,4,0,0,0,1.9-.49A3.7,3.7,0,0,1,97.89,149a.93.93,0,0,1-.92-1c0-2.33,6.17-11.65,10.76-16.7.72-.82,3-3.25,4.26-3.25a2.09,2.09,0,0,1,.76.17c1.48.52,2.23,2,1.74,1.6s-1.25.07-2.07.72A29.25,29.25,0,0,0,110,133C105.2,137.94,98.25,146.6,98.25,148Z"/><path class="cls-3" d="M121.38,148.93c0,.39.26.62,1,.62,2.39,0,8.4-4.56,11.71-7.31.1-.07.33.09.23.19-2.46,2.3-9,8.57-13.35,8.57a2.66,2.66,0,0,1-2.33-2.07,5.89,5.89,0,0,1,.46-2.16,16.26,16.26,0,0,1,4.52-5.68c2.73-2.26,5.65-3.28,7.06-3.28.49,0,2,.75,2,1.67,0,2-6.3,6.76-10,6.86A5.61,5.61,0,0,0,121.38,148.93Zm1.74-3.25c2.86-.33,8.3-5.64,8.5-6.89C128,140,124.2,143.94,123.12,145.68Z"/><path class="cls-3" d="M141.26,130.29a17.56,17.56,0,0,1,2.73-3,2.39,2.39,0,0,1,1.21-.66c1.84-.1,3.15,1.81,2.53,1.45-1.15-.53-3.29,2.56-4.73,4.33s-2.75,3.74-4.4,6.13a71.75,71.75,0,0,0-6.1,10.6c1.41.16,6.86-5.18,8.79-7a.15.15,0,0,1,.23.2c-1.6,1.84-7.31,7.81-9.28,8.53a1.15,1.15,0,0,1-1.05-.13,3.65,3.65,0,0,1-1.18-1.31.83.83,0,0,1-.1-.5c0-1,1.51-4.16,5.51-10.43C137.46,135.38,139.56,132.53,141.26,130.29Z"/><path class="cls-3" d="M137.9,151a2.22,2.22,0,0,1-1.35-1.57c0-1.9,4.76-9.06,6.86-10.73a.7.7,0,0,1,.49-.2A2.87,2.87,0,0,1,146,140.6c0,.13-.17,0-.43-.07-1.34-.13-5.84,7.35-6.23,8.7,2-.53,6.79-5.09,8.79-7,.23-.16.39.1.29.2-2.85,3.08-8.07,8.43-10.1,8.6A1.4,1.4,0,0,1,137.9,151Zm10.95-16.47c.3.33.5.82.37.82a1,1,0,0,0-.69,0,9.85,9.85,0,0,0-2.46,2.13c-.46.59-1.15-.1-1.19-.69,0-.95,1.22-3.08,2.07-3.35A2.46,2.46,0,0,1,148.85,134.49Z"/><path class="cls-3" d="M146.44,143.22a17.77,17.77,0,0,1,3.24-5,.67.67,0,0,1,.43-.19c.79,0,2,1.24,2.07,2.13,0,.1-.07,0-.33,0-.62-.07-1.64,1.6-2.79,3.67a21.23,21.23,0,0,0-1.9,4.79c3-2.1,9.35-8.86,12.24-12.1.23-.27.39-.3.19.06-3.34,5.91-12.76,14.5-13.78,14.5-.65,0-1.41-1-1.41-1.28A17.44,17.44,0,0,1,146.44,143.22Z"/><path class="cls-3" d="M155,148.93c0,.39.26.62,1,.62,2.4,0,8.4-4.56,11.71-7.31.1-.07.33.09.23.19-2.46,2.3-9,8.57-13.35,8.57a2.66,2.66,0,0,1-2.33-2.07,6.1,6.1,0,0,1,.46-2.16,16.3,16.3,0,0,1,4.53-5.68c2.72-2.26,5.64-3.28,7-3.28.5,0,2,.75,2,1.67,0,2-6.3,6.76-10,6.86A5.61,5.61,0,0,0,155,148.93Zm1.74-3.25c2.85-.33,8.3-5.64,8.49-6.89C161.54,140,157.77,143.94,156.69,145.68Z"/><path class="cls-3" d="M170.33,138a.82.82,0,0,1,.46-.17,2.71,2.71,0,0,1,2,2.1c0,.13-.09,0-.35-.06-.5,0-1.65,1.24-2.63,2.56a42,42,0,0,0-2.72,3.93,41.57,41.57,0,0,1,7.84-7.05,7.32,7.32,0,0,1,2.95-1.54c.36,0,1.71,1.37,1.48,1.64-.72.75-3.45,3.15-4.53,5.71,1.57-.13,3.84-1.61,5.87-3.42,0,0,.23-.06.27,0-.6.79-4.53,4.47-6.8,4.47-.59,0-1.57-1.15-1.57-1.54a8.32,8.32,0,0,1,1.9-3.81,24.94,24.94,0,0,0-6.79,5.54c-1.67,1.81-3.64,4.7-2.92,5-.95.23-1.74-.78-2-1.7a3.17,3.17,0,0,1,.5-1.68,38.12,38.12,0,0,1,3.6-6A22.13,22.13,0,0,1,170.33,138Z"/><path class="cls-3" d="M188.27,145.62c-2.55,3.18-7.77,12.53-9.71,16.17,2.59-3.57,7.35-7.94,8.3-8.23.17,0,.17.19.17.19-4.7,3.75-9,10.63-9.39,12.21a.53.53,0,0,1-.36.1c-1.31.13-1.8-1.68-1.7-2.27A16,16,0,0,1,177,160c1.71-3.74,6.17-12.44,10.8-17.75-3.32,3.38-7.94,8.3-9.91,8.69h-.26a2,2,0,0,1-1.54-1.67c0-1.41,1.8-4.73,3.67-7.32A20.27,20.27,0,0,1,183,138.2a.7.7,0,0,1,.46-.2,2.71,2.71,0,0,1,2,2.14c0,.13-.09,0-.36-.07-.52-.06-1.87,1.51-3,3-1.68,2.16-3.28,5.05-3.28,6,1.57-.65,4.92-3.61,6.46-5.12,1.74-1.67,4.3-4.49,6.1-5.94a.7.7,0,0,1,.49-.19,2.81,2.81,0,0,1,2,2.13c0,.13-.13,0-.36-.06s-.69.26-1.15.75C191.06,142.07,189.72,143.84,188.27,145.62Z"/><path class="cls-3" d="M109.83,158.21a12.69,12.69,0,0,0,4.09,1.62,15.2,15.2,0,0,1-6.42-1.18c-.71-.46-1-1.27.24-1.85,4.22-2,31.47-3.53,48.34-3,2.7.06,10.85.34,13,1.76a3.15,3.15,0,0,1,1,.95c1.53,2.05.12,4.15,0,3.28-.35-.82-2.21-1.29-4.78-1.6-1.77-.19-3.83-.31-8.53-.52C139.77,156.9,112.39,157,109.83,158.21Z"/></g></g></svg>