<svg xmlns="http://www.w3.org/2000/svg" viewBox="0 0 120 81.81"><defs><style>.cls-1{fill:#fff;}</style></defs><g id="Layer_2" data-name="Layer 2"><g id="Layer_1-2" data-name="Layer 1"><path class="cls-1" d="M68.45,1.18c9.41,10,14.28,18,16.38,34.81A26.15,26.15,0,0,0,68.45,1.18Z"/><path class="cls-1" d="M59.92,43.89c-.42,2.94.72,5.77,3,8.24a25.93,25.93,0,0,0,14.37-5.91c0-.35.07-.69.1-1a64.28,64.28,0,0,0-.38-13.88C67.71,33.22,60.77,38,59.92,43.89Z"/><path class="cls-1" d="M55,33.66l0,0c.12-.21.22-.42.31-.62h0a6.18,6.18,0,0,0,.33-5.16h0c-.05-.11-.09-.21-.14-.31v0c0-.09-.09-.18-.14-.27l0,0L55.24,27l0,0-.15-.24a.1.1,0,0,1,0-.05c-.05-.07-.11-.14-.16-.22l0-.05-.17-.2,0-.06L54.43,26l0-.06a1.37,1.37,0,0,1-.17-.17l-.07-.06c0-.06-.11-.11-.16-.16l-.08-.07-.16-.14-.09-.07-.16-.13L53.4,25l-.15-.11-.1-.07-.15-.1-.11-.07a.67.67,0,0,0-.14-.09l-.12-.08-.12-.07-.13-.08-.11-.06-.15-.07L52,24.18l-.16-.08-.07,0-.23-.1c-3.43-1.63-7.29-3.25-9.72-4.35l-.45-.21-.13-.07-.3-.16-.13-.08-.33-.2,0,0-.34-.23L40,18.55l-.21-.16-.11-.09-.23-.2-.05-.05a5.16,5.16,0,0,1-1.74-4.28,26.16,26.16,0,0,0,4.92,31.17C48,41.45,52.73,37.52,55,33.66Z"/><path class="cls-1" d="M53,43.63c-2.13,1.48-4.39,2.93-6.67,4.33a25.85,25.85,0,0,0,12.7,4.22C55.7,49.74,53.54,46.79,53,43.63Z"/><path class="cls-1" d="M62.05,3l1.07,1.46c-3.56.51-9.84,1.31-13.83,3.67s-5.3,5.62-.09,7.83c2.69,1.13,6.44,2.23,9.75,3.51,2,.83,7.18,3.59,7.27,9.47a43.7,43.7,0,0,1,10-2.12C74.11,16.4,69.51,7,63.35.14A26.27,26.27,0,0,0,60.67,0,26,26,0,0,0,40.16,10c.55-.49,1.15-1,1.79-1.47C46.28,5.24,54.37,3.07,62.05,3Z"/><path class="cls-1" d="M45.72,60.1a3.34,3.34,0,0,0-3.44,3.39v0a3.43,3.43,0,0,0,6.86,0v0A3.32,3.32,0,0,0,45.72,60.1Zm0,5.83a2.36,2.36,0,0,1-2.33-2.44v0a2.31,2.31,0,0,1,2.31-2.42A2.36,2.36,0,0,1,48,63.49v0A2.31,2.31,0,0,1,45.72,65.93Z"/><path class="cls-1" d="M65.14,66.77h1V60.21h-1Z"/><path class="cls-1" d="M51.33,66.48a6.16,6.16,0,0,0,1.79.36,2.89,2.89,0,0,0,.4,0c1.41,0,2.33-.75,2.33-1.93v0c0-1-.59-1.53-2.11-1.9-1.28-.3-1.63-.54-1.63-1.11h0c0-.45.38-.78.94-.85h.3a6,6,0,0,1,1.55.22h0a3.55,3.55,0,0,1,.49.18v-1a7,7,0,0,0-2.11-.32h0A2,2,0,0,0,51.06,62v0c0,1.19.77,1.59,2.18,1.94,1.19.27,1.55.52,1.55,1.08v0c0,.54-.49.9-1.24.9h-.1a5,5,0,0,1-1.68-.35l-.44-.17Z"/><path class="cls-1" d="M58,66.77h1V64.62H60.4C62,64.62,63,63.75,63,62.4v0a2.19,2.19,0,0,0-2.48-2.17H58Zm2.47-3.09H59V61.16h1.42c1,0,1.51.47,1.51,1.25v0C61.94,63.18,61.33,63.68,60.43,63.68Z"/><path class="cls-1" d="M70.44,66.77H71.5V61.18h2.12v-1h-5.3v1h2.12Z"/><path class="cls-1" d="M82,66.77H86.6v-1H83.09V60.21H82Z"/><path class="cls-1" d="M79.05,66.77h1.13l-2.89-6.61h-1L73.4,66.77h1.06l.69-1.61h3.24Zm-1-2.53H75.53l0-.09,1.2-2.8Z"/><polygon class="cls-1" points="39.1 60.21 39.1 62.99 35.81 62.99 35.81 60.21 34.74 60.21 34.74 66.77 35.81 66.77 35.81 63.95 39.1 63.95 39.1 65.78 39.1 66.73 39.1 66.77 39.51 66.77 39.52 66.77 40.15 66.77 40.15 65.78 40.15 60.21 39.1 60.21"/><path class="cls-1" d="M52.08,70.27A5.77,5.77,0,1,0,57.85,76,5.78,5.78,0,0,0,52.08,70.27Zm0,9.31A3.54,3.54,0,1,1,55.62,76,3.54,3.54,0,0,1,52.08,79.58Z"/><path class="cls-1" d="M105.1,70.27A5.77,5.77,0,1,0,110.86,76,5.77,5.77,0,0,0,105.1,70.27Zm0,9.31A3.54,3.54,0,1,1,108.64,76,3.55,3.55,0,0,1,105.1,79.58Z"/><path class="cls-1" d="M39.49,81.59h.06a5.57,5.57,0,0,0,0-11.13h-4.8V81.6Zm-2.33-2.07h-.09v-7h2.42a3.49,3.49,0,0,1,0,7Z"/><path class="cls-1" d="M72.62,81.61h2.3V70.47h-2.3Z"/><path class="cls-1" d="M112.07,81.1a10.23,10.23,0,0,0,3.57.71h.15a6.81,6.81,0,0,0,.78,0h.13a5,5,0,0,0,.67-.13,3.87,3.87,0,0,0,2-1.23,3.17,3.17,0,0,0,.64-1.92,3.25,3.25,0,0,0-1.62-2.8,6,6,0,0,0-2.07-.67,4.85,4.85,0,0,1-1.84-.42,1.1,1.1,0,0,1-.66-1,1.11,1.11,0,0,1,.12-.5,1.47,1.47,0,0,1,1-.66,3.72,3.72,0,0,1,.68-.09h.24a2,2,0,0,1,.34,0,9.92,9.92,0,0,1,2,.39h0l.18.05a.73.73,0,0,0,.21,0,.43.43,0,0,0,.43-.27,1.35,1.35,0,0,0,0-.33V70.72a13.74,13.74,0,0,0-3.28-.48h-.25a5.21,5.21,0,0,0-1.49.21,3.23,3.23,0,0,0-.52,6,7.67,7.67,0,0,0,2.18.52,4.47,4.47,0,0,1,1.76.6,1.12,1.12,0,0,1,.45.89,1.57,1.57,0,0,1,0,.24,1.36,1.36,0,0,1-1.07.92,3.38,3.38,0,0,1-.92.09h-.1a9.24,9.24,0,0,1-3-.61.81.81,0,0,0-.25,0,.49.49,0,0,0-.46.33,1,1,0,0,0,0,.25Z"/><path class="cls-1" d="M68.55,74v6.75a.78.78,0,0,0,.81.85h1.46V70.47H68.27l-3.34,5.81L61.6,70.47H59.05V81.61H60.5a.79.79,0,0,0,.82-.85V74l2.75,4.87H65.8Z"/><path class="cls-1" d="M84.62,81.61h2V70.47H85.27a.92.92,0,0,0-.94,1v6.15l-5.44-7.15H76.73V81.61h1.42c.31,0,.85-.21.85-1.15V74.23Z"/><path class="cls-1" d="M96.83,75.27H93.06v1.37c0,.15.07.66.8.66h2v1.44l0,0A3.54,3.54,0,1,1,93,72.56a7.66,7.66,0,0,1,1.16-.09,6.89,6.89,0,0,1,1.21.1v0l.39.08a1.35,1.35,0,0,0,.33,0,.75.75,0,0,0,.79-.71V70.67a7.36,7.36,0,0,0-2.37-.48h-.57a7.6,7.6,0,0,0-2,.3,4.55,4.55,0,0,0-1.16.52c-.21.13-.41.26-.61.41a6.92,6.92,0,0,0-.93.86l-.16.19,0,.06A5.67,5.67,0,0,0,87.81,76a5.77,5.77,0,0,0,5.76,5.76,5.7,5.7,0,0,0,4.56-2.24V75.27Z"/><path class="cls-1" d="M25.37,70.27A5.77,5.77,0,1,0,31.14,76,5.77,5.77,0,0,0,25.37,70.27Zm0,9.31A3.54,3.54,0,1,1,28.91,76,3.54,3.54,0,0,1,25.37,79.58Z"/><path class="cls-1" d="M.39,81.1A10.16,10.16,0,0,0,4,81.81H4.1a6.53,6.53,0,0,0,.78,0H5a4.67,4.67,0,0,0,.67-.13,3.87,3.87,0,0,0,2-1.23,3.23,3.23,0,0,0-1-4.72A6,6,0,0,0,4.63,75a4.71,4.71,0,0,1-1.84-.42,1.11,1.11,0,0,1-.55-1.52,1.53,1.53,0,0,1,1-.66,3.61,3.61,0,0,1,.67-.09h.25a1.83,1.83,0,0,1,.33,0,9.85,9.85,0,0,1,2,.39h0l.18.05a.73.73,0,0,0,.21,0,.42.42,0,0,0,.42-.27,1.35,1.35,0,0,0,0-.33V70.72a13.68,13.68,0,0,0-3.28-.48H3.82a5.23,5.23,0,0,0-1.5.21,3.23,3.23,0,0,0-.52,6A8,8,0,0,0,4,77a4.44,4.44,0,0,1,1.75.6,1.12,1.12,0,0,1,.45.89,1.66,1.66,0,0,1,0,.24,1.38,1.38,0,0,1-1.08.92,3.34,3.34,0,0,1-.92.09h-.1a9.2,9.2,0,0,1-2.94-.61.9.9,0,0,0-.25,0,.49.49,0,0,0-.46.33,1,1,0,0,0,0,.25Z"/><path class="cls-1" d="M15.4,69.39c1,0,1.14-.63,1.16-.87v-.45H13.38c-1.07,0-1.19.66-1.2.88v.44H15.4Z"/><path class="cls-1" d="M15.43,70.39H13.31L8.54,81.61h1.68a1.12,1.12,0,0,0,1-.73l.56-1.38H17l.56,1.38a1.12,1.12,0,0,0,1,.73H20.2Zm-.79,7.2H12.51l.08-.17,1.78-4.37,1.85,4.54Z"/></g></g></svg>