<svg xmlns="http://www.w3.org/2000/svg" width="116.545" height="35.831" viewBox="0 0 116.545 35.831">
  <defs>
    <style>
      .cls-1 {
        fill: #3e51cf;
      }
    </style>
  </defs>
  <g id="Group_3210" data-name="Group 3210" transform="translate(-210.062 -534.164)">
    <g id="Group_3157" data-name="Group 3157" transform="translate(243.212 544.906)">
      <path id="Path_34" data-name="Path 34" class="cls-1" d="M293.167,569.9v6.628H291.24c-3.384,0-5.641-1.176-6.675-3.479a9.579,9.579,0,0,1-7.9,4.043c-6.581,0-11.564-5.406-11.564-12.551S270.086,552,276.667,552a9.574,9.574,0,0,1,7.239,3.2v-2.632h6.864v15.4A1.757,1.757,0,0,0,292.7,569.9Zm-9.261-5.359a5.853,5.853,0,1,0-5.876,5.923A5.733,5.733,0,0,0,283.906,564.537Z" transform="translate(-265.103 -552)"/>
    </g>
    <g id="Group_3158" data-name="Group 3158" transform="translate(273.327 544.906)">
      <path id="Path_35" data-name="Path 35" class="cls-1" d="M343.169,569.9v6.628h-1.927c-3.385,0-5.641-1.175-6.676-3.479a9.578,9.578,0,0,1-7.9,4.043c-6.581,0-11.564-5.406-11.564-12.552S320.087,552,326.669,552a9.575,9.575,0,0,1,7.239,3.2v-2.633h6.863v15.4A1.757,1.757,0,0,0,342.7,569.9Zm-9.261-5.359a5.853,5.853,0,1,0-5.876,5.923A5.733,5.733,0,0,0,333.908,564.537Z" transform="translate(-315.104 -552)"/>
    </g>
    <rect id="Rectangle_16" data-name="Rectangle 16" class="cls-1" width="7.251" height="23.963" transform="translate(210.671 545.47)"/>
    <circle id="Ellipse_15" data-name="Ellipse 15" class="cls-1" cx="4.235" cy="4.235" r="4.235" transform="translate(210.062 534.164)"/>
    <path id="Path_36" data-name="Path 36" class="cls-1" d="M239.287,561.271c-.65-.187-1.265-.364-1.857-.554-.387-.125-1.566-.5-1.566-1.431,0-.677.385-1.484,2.223-1.484a3.6,3.6,0,0,1,3.2,1.974l6.072-2.733a10.362,10.362,0,0,0-3.317-3.529,12.5,12.5,0,0,0-11.759-.093,7.035,7.035,0,0,0-3.822,6.359,5.854,5.854,0,0,0,2.747,5.164,22.032,22.032,0,0,0,5.925,2.513c.619.195,1.2.379,1.773.573,1.014.349,1.528.852,1.528,1.5,0,.785-.453,1.721-2.613,1.721a4.033,4.033,0,0,1-4.024-2.518l-6.283,3.163c1.81,3.493,5.2,5.192,10.356,5.192a13.216,13.216,0,0,0,7.221-1.933c2.855-1.819,3.456-5.547,2.574-8.29C246.542,563.37,242.708,562.255,239.287,561.271Z" transform="translate(-6.942 -7.094)"/>
    <path id="Path_37" data-name="Path 37" class="cls-1" d="M373.793,568.537a5.959,5.959,0,0,1,0-7.969,5.155,5.155,0,0,1,3.818-1.559,5.037,5.037,0,0,1,4.473,2.242l6.15-3.551a11.744,11.744,0,0,0-4.18-4.026,12.593,12.593,0,0,0-6.393-1.662,12.326,12.326,0,0,0-12.639,12.54,12.182,12.182,0,0,0,3.607,8.932,12.305,12.305,0,0,0,9.032,3.608,12.6,12.6,0,0,0,6.393-1.662,11.619,11.619,0,0,0,4.184-4.073l-6.138-3.544a4.913,4.913,0,0,1-4.489,2.283A5.154,5.154,0,0,1,373.793,568.537Z" transform="translate(-61.63 -7.099)"/>
  </g>
</svg>
