<svg xmlns="http://www.w3.org/2000/svg" width="104" height="46.542" viewBox="0 0 104 46.542">
  <g id="Grupo_1568" data-name="Grupo 1568" transform="translate(-1218.5 -462.176)">
    <path id="Caminho_1440" data-name="Caminho 1440" d="M1466.5,462.244l-20.19,36.857h-14.77V473.9l-13.957,25.2h-14.77V462.244l11.992-.068V480.6l9.35-18.429h19.377V480.6l9.214-18.429Z" transform="translate(-144.002)" fill="#fff"/>
    <path id="Caminho_1441" data-name="Caminho 1441" d="M1324.4,499.343l-21.952-18.429,21.952-18.429Z" transform="translate(-65.587 -0.242)" fill="#fba832"/>
    <g id="Grupo_1566" data-name="Grupo 1566" transform="translate(1218.5 462.311)">
      <g id="Grupo_1565" data-name="Grupo 1565" transform="translate(0 0)">
        <path id="Caminho_1442" data-name="Caminho 1442" d="M1218.5,462.8v18.361l21.871-18.361Z" transform="translate(-1218.5 -462.795)" fill="#fff"/>
        <path id="Caminho_1443" data-name="Caminho 1443" d="M1218.5,546.744V565.1h21.871Z" transform="translate(-1218.5 -528.383)" fill="#fff"/>
      </g>
    </g>
    <g id="Grupo_1567" data-name="Grupo 1567" transform="translate(1219.358 502.585)">
      <path id="Caminho_1444" data-name="Caminho 1444" d="M1222.421,653.647v-5.686h.517v2.664l2.571-2.664h.676l-2.7,2.719,2.824,2.967h-.75l-2.625-2.886v2.886Z" transform="translate(-1222.421 -647.736)" fill="#fff"/>
      <path id="Caminho_1445" data-name="Caminho 1445" d="M1255,653.064l-1.961-5.908h.54L1255,651.7l1.515-4.766,1.573,4.727,1.367-4.5h.536l-1.9,5.908-1.573-4.828Z" transform="translate(-1246.344 -646.931)" fill="#fff"/>
      <path id="Caminho_1446" data-name="Caminho 1446" d="M1326.6,653.647v-5.686h.886a8.35,8.35,0,0,1,1.682.117,2.138,2.138,0,0,1,.854.4,2.394,2.394,0,0,1,.722.971,3.846,3.846,0,0,1,0,2.721,2.234,2.234,0,0,1-1.557,1.357,6.864,6.864,0,0,1-1.526.12h-1.06Zm.517-.446h.726a5.442,5.442,0,0,0,1.251-.1,1.46,1.46,0,0,0,.625-.336,2.116,2.116,0,0,0,.54-.831,3.645,3.645,0,0,0,0-2.284,1.986,1.986,0,0,0-.545-.816,1.555,1.555,0,0,0-.664-.346,6.3,6.3,0,0,0-1.371-.1h-.559Z" transform="translate(-1303.818 -647.736)" fill="#fff"/>
      <path id="Caminho_1447" data-name="Caminho 1447" d="M1370.627,650.358a2.9,2.9,0,0,1-.229,1.144,2.963,2.963,0,0,1-.661.965,3.114,3.114,0,0,1-3.321.65,3.056,3.056,0,0,1-1.648-1.62,2.9,2.9,0,0,1-.228-1.14,2.946,2.946,0,0,1,.228-1.152,2.988,2.988,0,0,1,.663-.973,2.892,2.892,0,0,1,.976-.641,3.279,3.279,0,0,1,2.353,0,2.941,2.941,0,0,1,.978.639,2.989,2.989,0,0,1,.662.973A2.946,2.946,0,0,1,1370.627,650.358Zm-3.047,2.521a2.476,2.476,0,0,0,.956-.187,2.516,2.516,0,0,0,.813-.544,2.547,2.547,0,0,0,0-3.581,2.426,2.426,0,0,0-.807-.544,2.5,2.5,0,0,0-.962-.187,2.447,2.447,0,0,0-.952.187,2.528,2.528,0,0,0-.809.544,2.6,2.6,0,0,0-.544.821,2.547,2.547,0,0,0,.544,2.76,2.439,2.439,0,0,0,.8.546A2.472,2.472,0,0,0,1367.58,652.879Z" transform="translate(-1333.457 -647.278)" fill="#fff"/>
      <path id="Caminho_1448" data-name="Caminho 1448" d="M1435.708,653.647v-5.686h.987a4.965,4.965,0,0,1,.936.062,1.242,1.242,0,0,1,.489.214,1.4,1.4,0,0,1,.431.522,1.559,1.559,0,0,1,.148.682,1.258,1.258,0,0,1-.237.773,1.111,1.111,0,0,1-.652.42,1.357,1.357,0,0,1,.858.439,1.329,1.329,0,0,1,.311.9,1.958,1.958,0,0,1-.12.711,1.41,1.41,0,0,1-.365.536,1.392,1.392,0,0,1-.6.328,5.122,5.122,0,0,1-1.192.1Zm.517-3.158h.645a1.646,1.646,0,0,0,1-.233.936.936,0,0,0,.293-.777,1.033,1.033,0,0,0-.286-.827,1.6,1.6,0,0,0-1.012-.241h-.645Zm0,2.711h.66a4.272,4.272,0,0,0,.777-.047.9.9,0,0,0,.361-.159.96.96,0,0,0,.291-.386,1.286,1.286,0,0,0,.109-.526,1.408,1.408,0,0,0-.12-.6.858.858,0,0,0-.334-.386,1.086,1.086,0,0,0-.348-.122,3.8,3.8,0,0,0-.623-.037h-.773Z" transform="translate(-1389.058 -647.736)" fill="#fff"/>
      <path id="Caminho_1449" data-name="Caminho 1449" d="M1473.1,653.647h-.629l-2-2.711h-.311v2.711h-.517v-5.686h1.045a2.122,2.122,0,0,1,1.385.384,1.432,1.432,0,0,1,.46,1.165,1.385,1.385,0,0,1-.394,1.045,1.5,1.5,0,0,1-1.086.381Zm-2.936-5.236v2.1h.52a1.646,1.646,0,0,0,1.008-.231.958.958,0,0,0,.285-.786,1.039,1.039,0,0,0-.3-.835,1.562,1.562,0,0,0-1-.248Z" transform="translate(-1415.576 -647.736)" fill="#fff"/>
      <path id="Caminho_1450" data-name="Caminho 1450" d="M1499.115,652.843l2.5-5.911,2.393,5.911h-.563l-.726-1.926h-2.323l-.754,1.926Zm1.452-2.369h1.981l-.971-2.474Z" transform="translate(-1438.597 -646.931)" fill="#fff"/>
      <path id="Caminho_1451" data-name="Caminho 1451" d="M1536.217,652.207l.443-.237a1.224,1.224,0,0,0,.429.65,1.176,1.176,0,0,0,.732.231,1.107,1.107,0,0,0,.843-.318,1.227,1.227,0,0,0,.3-.882,1.107,1.107,0,0,0-.2-.684,2.771,2.771,0,0,0-.876-.629,3.92,3.92,0,0,1-1.142-.8,1.269,1.269,0,0,1-.283-.831,1.285,1.285,0,0,1,.41-.987,1.5,1.5,0,0,1,1.063-.381,1.474,1.474,0,0,1,.744.181,1.353,1.353,0,0,1,.515.542l-.4.241a.867.867,0,0,0-.351-.373,1.076,1.076,0,0,0-.538-.128.907.907,0,0,0-.668.247.9.9,0,0,0-.249.666q0,.6.987,1.115l.272.144a2.859,2.859,0,0,1,.971.755,1.593,1.593,0,0,1,.245.922,1.691,1.691,0,0,1-2.62,1.385A1.809,1.809,0,0,1,1536.217,652.207Z" transform="translate(-1467.584 -647.251)" fill="#fff"/>
      <path id="Caminho_1452" data-name="Caminho 1452" d="M1570.139,653.647v-5.686h.517v5.686Z" transform="translate(-1494.087 -647.736)" fill="#fff"/>
      <path id="Caminho_1453" data-name="Caminho 1453" d="M1592.8,653.647v-5.686h.517v5.2h1.95v.485Z" transform="translate(-1511.794 -647.736)" fill="#fff"/>
    </g>
  </g>
</svg>
