<svg xmlns="http://www.w3.org/2000/svg" viewBox="0 0 120 155.18"><defs><style>.cls-1{fill:#fff;}.cls-1,.cls-2,.cls-3,.cls-4,.cls-5{fill-rule:evenodd;}.cls-2{fill:#e30039;}.cls-3{fill:#009cc1;}.cls-4{fill:#006ab3;}.cls-5{fill:#fcb900;}</style></defs><g id="Layer_2" data-name="Layer 2"><g id="Layer_1-2" data-name="Layer 1"><path class="cls-1" d="M112.81,118.16a11.93,11.93,0,0,0-.71,2.53,19.1,19.1,0,0,0-.22,3v13.62a31.87,31.87,0,0,0,4.5-.69,18.74,18.74,0,0,0,3.62-1.22c-.35.77-.67,1.47-1,2.11s-.52,1.24-.72,1.8H107.76a12.89,12.89,0,0,0,.68-2.53,18,18,0,0,0,.23-3V123.65a17.88,17.88,0,0,0-.23-3,12.53,12.53,0,0,0-.68-2.53Zm-8.4,0a12.55,12.55,0,0,0-.7,2.53,17.94,17.94,0,0,0-.22,3v10.13a18,18,0,0,0,.22,3,12.92,12.92,0,0,0,.7,2.53h-5a12.91,12.91,0,0,0,.69-2.53,18,18,0,0,0,.23-3V123.65a17.88,17.88,0,0,0-.23-3,12.54,12.54,0,0,0-.69-2.53Zm-23,15.62a19,19,0,0,0,.22,3,11.63,11.63,0,0,0,.68,2.5H77.61a13.64,13.64,0,0,0,.69-2.53,19.19,19.19,0,0,0,.22-3V121.2l-2.51-3h5.38v.13a3.94,3.94,0,0,0,.94,2.21,2.71,2.71,0,0,1,.18.25l9.63,13.41V123.65a18,18,0,0,0-.22-3,12,12,0,0,0-.67-2.49H96a12.54,12.54,0,0,0-.69,2.53,17.94,17.94,0,0,0-.22,3V134c0,1.15,0,2.15.11,3a16.08,16.08,0,0,0,.36,2.25H91.19a5.26,5.26,0,0,0-.29-1.2,4.17,4.17,0,0,0-.54-1l-8.94-12.3Zm-19.41-1-1.34,2.79a9.15,9.15,0,0,0-.65,1.69,5.38,5.38,0,0,0-.21,1.43c0,.08,0,.17,0,.26s0,.21,0,.35h-5A24.45,24.45,0,0,0,56.43,137q.78-1.28,1.56-2.85l8.15-16.4,7.9,17a17.82,17.82,0,0,0,1.14,2.08c.48.75,1,1.58,1.73,2.47H71.5a4.88,4.88,0,0,0,.06-.52,3.93,3.93,0,0,0,0-.46,3.79,3.79,0,0,0-.12-.94,7.92,7.92,0,0,0-.47-1.29l-1.43-3.31Zm1.14-2.45h5.3l-2.53-6Zm-16.94-1.71a11.47,11.47,0,0,1-.88,4.53,9.91,9.91,0,0,1-2.55,3.59,10.69,10.69,0,0,1-3.35,2,11,11,0,0,1-3.93.7,10.86,10.86,0,0,1-7-2.44,9.7,9.7,0,0,1-2.77-3.65,11.55,11.55,0,0,1-1-4.75,11,11,0,0,1,.61-3.72,10.06,10.06,0,0,1,1.84-3.15A10.76,10.76,0,0,1,31,118.94a11.61,11.61,0,0,1,4.75-1,10.69,10.69,0,0,1,3.91.71,10.18,10.18,0,0,1,5.69,5.61A11.2,11.2,0,0,1,46.21,128.59Zm-10.35,8.34a6.34,6.34,0,0,0,4.92-2.11,7.71,7.71,0,0,0,1.92-5.42,11.05,11.05,0,0,0-.38-2.91,8.8,8.8,0,0,0-1.08-2.5,7.72,7.72,0,0,0-2.62-2.62,6.64,6.64,0,0,0-3.4-.89,6.25,6.25,0,0,0-4.89,2.15,8.09,8.09,0,0,0-1.92,5.57,10,10,0,0,0,.43,3,10.21,10.21,0,0,0,1.27,2.67,7.1,7.1,0,0,0,2.51,2.28A6.71,6.71,0,0,0,35.86,136.93ZM22,118.16a11.93,11.93,0,0,0-.71,2.53,19.1,19.1,0,0,0-.22,3v10.13a19.19,19.19,0,0,0,.22,3,12.28,12.28,0,0,0,.71,2.53H17a13.64,13.64,0,0,0,.69-2.53,19.19,19.19,0,0,0,.22-3V123.65a19.1,19.1,0,0,0-.22-3,13.23,13.23,0,0,0-.69-2.53Zm-17.89,2v8.66a6.64,6.64,0,0,0,3.66-1.5,3.89,3.89,0,0,0,1.31-3,3.71,3.71,0,0,0-1.33-3A5.58,5.58,0,0,0,4.12,120.15Zm0,13.63a18,18,0,0,0,.23,3,12.26,12.26,0,0,0,.7,2.53H0a12.91,12.91,0,0,0,.69-2.53,18,18,0,0,0,.22-3V123.65a17.94,17.94,0,0,0-.22-3A12.54,12.54,0,0,0,0,118.16H3.51c3,0,5.27.51,6.74,1.52a5.25,5.25,0,0,1,2.21,4.64,4.89,4.89,0,0,1-1.1,3.19,6.77,6.77,0,0,1-3.19,2.08,59.69,59.69,0,0,0,3.44,5,53,53,0,0,0,4,4.64H12.43c-.49,0-1.5-.87-3-2.63a83.87,83.87,0,0,1-5.31-7.11Z"/><path class="cls-1" d="M101.19,149.85h2.14a2,2,0,0,0-.28.87,18.35,18.35,0,0,0-.08,2.05c0,.64,0,1.11,0,1.41a3,3,0,0,0,.13.73c-.55,0-1.24.08-2,.16s-1.34.11-1.59.11a5.67,5.67,0,0,1-4-1.3,4.86,4.86,0,0,1-1.4-3.73,5.15,5.15,0,0,1,1.71-4.08,6.89,6.89,0,0,1,4.67-1.49c.35,0,.74,0,1.16,0s.86.08,1.32.14v1.87a3.72,3.72,0,0,0-1.35-1,4.25,4.25,0,0,0-1.74-.33,3.83,3.83,0,0,0-3,1.23,4.83,4.83,0,0,0-1.11,3.36A4.43,4.43,0,0,0,97,153.21a4.53,4.53,0,0,0,3.33,1.18,6.25,6.25,0,0,0,.64,0,4.34,4.34,0,0,0,.54-.09,7.44,7.44,0,0,0,.1-.87q0-.45,0-1a12,12,0,0,0-.09-1.68A1.76,1.76,0,0,0,101.19,149.85ZM82.36,146l0,5.14a21,21,0,0,0,.14,2.65,3.12,3.12,0,0,0,.39,1.22H81.09a4.2,4.2,0,0,0,.45-1.85c.09-1,.14-2.36.14-4.21a23.08,23.08,0,0,0-.13-3.19,1.52,1.52,0,0,0-.46-1h1.66c.3,0,.63.28,1,.84a3.84,3.84,0,0,0,.23.34l1.39,2.1q2.17,3.33,3.5,5.13l0-4.47q0-2.14-.09-2.91a2.09,2.09,0,0,0-.33-1H90a2.09,2.09,0,0,0-.32,1.17c-.06.63-.09,1.9-.09,3.82V155h-1q-.53-.84-2.64-3.89C84.49,149.11,83.31,147.38,82.36,146Zm-7.67,9a2.06,2.06,0,0,0,.31-1.08q.09-.84.09-3.6v-.65c0-2,0-3.28-.09-3.83a2,2,0,0,0-.31-1.07h2.16a2,2,0,0,0-.3,1q-.09.81-.09,3.45v1.23c0,1.77,0,2.92.09,3.47a2.06,2.06,0,0,0,.3,1Zm-10.47,0a2.06,2.06,0,0,0,.31-1.08c.06-.56.09-1.76.09-3.59v-.66c0-2,0-3.28-.09-3.83a2,2,0,0,0-.31-1.07h.51c.47,0,1,0,1.76-.07s1.17-.07,1.41-.07a3.18,3.18,0,0,1,2.24.7,2.61,2.61,0,0,1,.76,2,3.26,3.26,0,0,1-.83,2.3,2.75,2.75,0,0,1-2.12.88,4,4,0,0,1-.87-.09,2.74,2.74,0,0,1-.73-.26h.17a2.55,2.55,0,0,0,2.77-2.76,2.26,2.26,0,0,0-.51-1.63,2.1,2.1,0,0,0-1.58-.54l-.57,0a3.65,3.65,0,0,0-.49.06,9.58,9.58,0,0,0-.12,1.52c0,.8,0,1.87,0,3.23q0,3,.09,3.84a2.12,2.12,0,0,0,.3,1.06Zm-10.47,0a2,2,0,0,0,.3-1.08c.07-.56.09-1.76.09-3.59v-.66c0-2,0-3.28-.09-3.83a1.94,1.94,0,0,0-.3-1.07h.5c.48,0,1.06,0,1.77-.07s1.17-.07,1.41-.07a3.18,3.18,0,0,1,2.24.7,2.61,2.61,0,0,1,.76,2,3.26,3.26,0,0,1-.83,2.3,2.77,2.77,0,0,1-2.12.88,4,4,0,0,1-.87-.09,2.74,2.74,0,0,1-.73-.26h.17a2.55,2.55,0,0,0,2.77-2.76,2.22,2.22,0,0,0-.52-1.63,2.06,2.06,0,0,0-1.57-.54l-.57,0a3.65,3.65,0,0,0-.49.06,8.46,8.46,0,0,0-.12,1.52c0,.8,0,1.87,0,3.23q0,3,.09,3.84a2.12,2.12,0,0,0,.3,1.06Zm-9.29.19A4.43,4.43,0,0,1,41,153.85a5.34,5.34,0,0,1-1.23-3.78A5.76,5.76,0,0,1,41.1,146a5,5,0,0,1,3.82-1.41,4.64,4.64,0,0,1,3.55,1.25,5.25,5.25,0,0,1,1.2,3.75,5.79,5.79,0,0,1-1.42,4.08A5,5,0,0,1,44.46,155.18Zm.49-.77a2.68,2.68,0,0,0,2.29-1.12,5.23,5.23,0,0,0,.83-3.14,6.23,6.23,0,0,0-.89-3.56,2.8,2.8,0,0,0-2.43-1.3,3,3,0,0,0-2.48,1.15,5.12,5.12,0,0,0-.88,3.2,5.82,5.82,0,0,0,.93,3.52A3.12,3.12,0,0,0,45,154.41ZM33.9,149.23v-.53a27.17,27.17,0,0,0-.09-3,1.77,1.77,0,0,0-.32-1h2.19a1.91,1.91,0,0,0-.31,1c-.06.54-.09,1.69-.09,3.44v1.24c0,1.77,0,2.92.09,3.47a2,2,0,0,0,.31,1H33.49a1.92,1.92,0,0,0,.32-1A27.23,27.23,0,0,0,33.9,151v-1.22H29.14V151q0,2.34.09,3a1.82,1.82,0,0,0,.31.93H27.37a2.06,2.06,0,0,0,.31-1.08q.09-.84.09-3.6v-.65c0-2,0-3.28-.09-3.83a2,2,0,0,0-.31-1.07h2.17a1.82,1.82,0,0,0-.31.93,30,30,0,0,0-.09,3v.53Zm-17.24,5.34v-1.73a3.47,3.47,0,0,0,1.21,1.2,3.34,3.34,0,0,0,1.67.42,2.07,2.07,0,0,0,1.5-.55,1.81,1.81,0,0,0,.58-1.39,1.87,1.87,0,0,0-.39-1.17,4,4,0,0,0-1.31-1l-.21-.12c-1.8-1-2.7-2-2.7-3a2.35,2.35,0,0,1,.92-1.92,3.66,3.66,0,0,1,2.4-.74l1,0,.66,0h.7v1.66a1.93,1.93,0,0,0-.85-.77,2.92,2.92,0,0,0-1.26-.26,2.54,2.54,0,0,0-1.57.43,1.4,1.4,0,0,0-.58,1.18c0,.73.7,1.47,2.11,2.21l.1,0a6.35,6.35,0,0,1,1.89,1.39,2.38,2.38,0,0,1,.57,1.55,2.78,2.78,0,0,1-1.05,2.19,3.82,3.82,0,0,1-2.6.91,6.2,6.2,0,0,1-1.31-.15A10.59,10.59,0,0,1,16.66,154.57Z"/><path class="cls-2" d="M78,9.61H63.27L70.66,17ZM30.51,19H47.86l-8.67,8.67Zm20.81,0H68.67L60,27.64Zm20.81,0H89.48L80.8,27.64ZM39.86,28.32h19l-9.49,9.49Zm9.48,9.49H70.66l9.48-9.49h-19l9.49,9.49L60,48.46ZM53.83,0H66.17L60,6.17ZM42,9.61H56.73L49.34,17Z"/><path class="cls-3" d="M21.15,30.42V45.2l7.39-7.39ZM30.51,78V60.6l8.67,8.67Zm0-20.81V39.79l8.67,8.67Zm0-20.8V19l8.67,8.67ZM39.86,68.6v-19l9.48,9.48Zm9.48-9.48V37.81l-9.48-9.49v19l9.48-9.48L60,48.46Zm-37.8-4.48V42.29l6.17,6.17Zm9.61,11.87V51.73l7.39,7.39Z"/><path class="cls-4" d="M42,87.31H56.73l-7.39-7.39ZM89.49,78H72.14l8.67-8.68ZM68.67,78H51.32L60,69.28Zm-20.8,0H30.52l8.68-8.68ZM80.14,68.6h-19l9.49-9.48Zm-9.48-9.48H49.34L39.86,68.6h19l-9.49-9.48L60,48.46ZM66.17,96.93H53.83L60,90.76ZM78,87.31H63.27l7.39-7.39Z"/><path class="cls-5" d="M98.85,66.51V51.73l-7.39,7.39ZM89.49,19V36.33l-8.67-8.68Zm0,20.81V57.14l-8.67-8.68Zm0,20.8V77.94l-8.67-8.68ZM80.14,28.32v19l-9.48-9.48Zm-9.48,9.49V59.12l9.48,9.48v-19l-9.48,9.48L60,48.46Zm37.8,4.48V54.64l-6.17-6.18ZM98.85,30.42V45.2l-7.39-7.39Z"/></g></g></svg>