<svg xmlns="http://www.w3.org/2000/svg" viewBox="0 0 120 20.04"><defs><style>.cls-1{fill:#99c23c;}</style></defs><g id="Layer_2" data-name="Layer 2"><g id="Layer_1-2" data-name="Layer 1"><path class="cls-1" d="M24.21,18.6c-.62.86-2.1,1.44-4,1.44h-.46c-3.07,0-5-1.53-5-4.44v-.32C14.74,12,16.67,11,20.8,11H21a19.58,19.58,0,0,1,2.15.11v-.61a1.32,1.32,0,0,0-.52-1.26,3.24,3.24,0,0,0-1.84-.32,16,16,0,0,0-3.57.49c-.76.18-1-.06-1.05-.55l-.25-1.53c0-.2,0-.46,0-.58,0-.37.12-.57.73-.75a21.52,21.52,0,0,1,5.26-.63c2.46,0,4.07.46,5,1.41a4.69,4.69,0,0,1,1.17,3.61V19c0,.58-.24.81-1,.81H25.59c-.7,0-.95-.14-1.14-.66l-.18-.52Zm-1.05-4.5A11,11,0,0,0,21.69,14h-.34c-1.41,0-2,.23-2,1.3v.11c0,1.07.64,1.33,1.72,1.33h.22a2.14,2.14,0,0,0,1.44-.44c.34-.28.43-.63.43-1.41Z"/><path class="cls-1" d="M44.28,18.94c0,.55-.21.84-1,.84H40.42c-.83,0-1.05-.29-1.05-.84V10.78A1.93,1.93,0,0,0,39,9.44a1.93,1.93,0,0,0-1.35-.37h-.06a2,2,0,0,0-1.36.37,1.88,1.88,0,0,0-.34,1.34v8.16c0,.55-.2.84-1,.84H32.05c-.83,0-1-.29-1-.84V6.45c0-.58.25-.81,1-.81h1.44c.72,0,1,.11,1.15.66l.18.55h.08a5.78,5.78,0,0,1,4.22-1.47h.12A5.42,5.42,0,0,1,43.3,6.71a6.26,6.26,0,0,1,4.19-1.33h.12a5.46,5.46,0,0,1,3.9,1.18c.84.81,1.15,1.88,1.15,3.81v8.57c0,.55-.22.84-1,.84H48.77c-.82,0-1-.29-1-.84V10.78a1.88,1.88,0,0,0-.34-1.34,1.93,1.93,0,0,0-1.34-.37H46a2,2,0,0,0-1.36.37,1.88,1.88,0,0,0-.34,1.34Z"/><path class="cls-1" d="M88,18.94c0,.55-.22.84-1,.84H84.1c-.83,0-1-.29-1-.84V6.47c0-.55.22-.83,1-.83h2.82c.83,0,1,.28,1,.83Z"/><path class="cls-1" d="M99.3,5.38a5.44,5.44,0,0,1,3.91,1.18c.83.81,1.14,1.88,1.14,3.81v8.57c0,.55-.22.84-1,.84h-2.84c-.83,0-1-.29-1-.84V10.78a1.83,1.83,0,0,0-.35-1.34,1.93,1.93,0,0,0-1.35-.37h-.18a2,2,0,0,0-1.36.37,1.89,1.89,0,0,0-.33,1.34v8.16c0,.55-.22.84-1,.84H92c-.83,0-1-.29-1-.84V6.45c0-.58.25-.81,1-.81h1.45c.7,0,1,.11,1.13.66l.18.55h.1a5.71,5.71,0,0,1,4.21-1.47Z"/><path class="cls-1" d="M114.92,16.31a17.52,17.52,0,0,0,3.26-.37,4.22,4.22,0,0,1,.59-.08.59.59,0,0,1,.56.49l.24,1.44a4.52,4.52,0,0,1,.12.78c0,.37-.15.57-.79.78a16.91,16.91,0,0,1-4.64.69h-.59c-2.44,0-4.31-.49-5.36-1.47-1.22-1.15-1.53-2.63-1.53-5V12c0-2.89.8-4.45,1.84-5.31a7.5,7.5,0,0,1,4.83-1.3h.43c2.22,0,3.81.57,4.64,1.44C119.6,7.94,120,9.51,120,12v1.5c0,.61-.28.81-.89.81h-7.38v.23c0,1.36.71,1.78,2.86,1.78Zm.2-5c.27,0,.35-.12.35-.38v-.46a2.28,2.28,0,0,0-.3-1.33,1.64,1.64,0,0,0-1.42-.52h-.27a1.8,1.8,0,0,0-1.29.4,2.15,2.15,0,0,0-.46,1.57v.72Z"/><path class="cls-1" d="M75.61,7.2c.74-1.13,1.75-1.56,3.44-1.56h1.23c.64,0,.89.15.89.81v2.1c0,.64-.22.81-.83.81h-.92a3.34,3.34,0,0,0-2.34.61,2.68,2.68,0,0,0-.51,2v7c0,.55-.22.84-1.06.84H72.68c-.82,0-1-.29-1-.84V6.45c0-.58.25-.81,1-.81h1.48c.71,0,1,.15,1.11.66l.24.9Z"/><path class="cls-1" d="M63.62,14.15a5.74,5.74,0,0,1,.5-.66,7,7,0,0,1,4.14-2.17V10.4a4.76,4.76,0,0,0-1.16-3.61c-1-1-2.59-1.41-5-1.41A21.52,21.52,0,0,0,56.8,6c-.62.18-.73.38-.73.75a5.19,5.19,0,0,0,.06.58l.24,1.53c.09.49.28.73,1,.55A16.17,16.17,0,0,1,61,8.93a3.16,3.16,0,0,1,1.83.32,1.31,1.31,0,0,1,.53,1.26v.61A19.58,19.58,0,0,0,61.2,11H61c-4.13,0-6.06,1-6.06,4.27v.32c0,2.91,1.9,4.44,5,4.44h.37a7.41,7.41,0,0,0,2.22-.53l0-.26a2.07,2.07,0,0,1,0-.35,7.75,7.75,0,0,1,.19-2.39,2.45,2.45,0,0,1-1.14.24h-.21c-1.08,0-1.72-.26-1.72-1.32v-.12c0-1.07.59-1.3,2-1.3h.33a11.1,11.1,0,0,1,1.48.09,1.72,1.72,0,0,1,.27.05"/><path class="cls-1" d="M1,5C.19,5,0,4.8,0,4.1V1.9C0,1.14.19,1,1,1H14.41c.81,0,1,.14,1,.9V4.1c0,.7-.18.87-1,.87H10.33V19c0,.74-.19.94-1.15.94h-3c-1,0-1.15-.2-1.15-.94V5Z"/><path class="cls-1" d="M85.33,4.63C83.63,4.63,83,3.8,83,2.35V2.28C83,.82,83.63,0,85.33,0h.35c1.71,0,2.37.82,2.37,2.28v.07c0,1.45-.66,2.28-2.37,2.28Z"/><path class="cls-1" d="M70.39,12.13c-7.79,0-7,6.75-7,6.75s0,.1,0,.24a11.88,11.88,0,0,0,4.81-5.5,8.22,8.22,0,0,1-4.16,6.26c7.79,1.48,6.33-7.75,6.33-7.75"/></g></g></svg>