<?xml version="1.0" encoding="utf-8"?>
<!-- Generator: Adobe Illustrator 22.0.0, SVG Export Plug-In . SVG Version: 6.00 Build 0)  -->
<svg version="1.1" id="Layer_1" xmlns="http://www.w3.org/2000/svg" xmlns:xlink="http://www.w3.org/1999/xlink" x="0px" y="0px"
	 viewBox="0 0 430.9 238.1" style="enable-background:new 0 0 430.9 238.1;" xml:space="preserve">
<style type="text/css">
	.st0{fill:#9ED02C;}
</style>
<path class="st0" d="M324.7,121.8l-15.3,0c-0.2,0-0.5,0-0.7,0c-2.3-0.3-2.1-3.8,0.3-3.8h25.3c5.1,0,9.3-4.1,9.3-9.3l0-5.6
	c0-5.2-4.2-9.4-9.3-9.4h-32.4c-5.6,0-10.9,2.6-14.3,7.1c-16.2,21.4-1.3,44.9,19.1,44.9l0.3,0c1.4,0,15-0.2,17.4,0.4
	c2.2,0.5,1.7,3.7-0.5,3.7l-29.3,0.1c-5.1,0-9.3,4.2-9.3,9.3v6.4c0,5.1,4.2,9.3,9.3,9.3h34.1c4.6,0,9.1-1.7,12.4-4.9
	C361.6,150.5,346.2,121.8,324.7,121.8"/>
<path class="st0" d="M400.1,93.6h-15.4c-15.4,0-27.9,12.5-27.9,27.9v25.8c0,15.4,12.5,27.9,27.9,27.9h15.4
	c15.4,0,27.9-12.5,27.9-27.9v-25.8C428,106.1,415.5,93.6,400.1,93.6"/>
<path class="st0" d="M187.2,92.8L187.2,92.8c-25.3,0-45.9,20.5-45.9,45.9v26.5c0,5.1,4.2,9.3,9.3,9.3h18.3c5.1,0,9.3-4.2,9.3-9.3
	v-12.3c0-2.2,1.8-4.1,4.1-4.1h9.8c2.2,0,4.1,1.8,4.1,4.1v12.3c0,5.1,4.2,9.3,9.3,9.3h18.3c5.1,0,9.3-4.2,9.3-9.3v-21.8v-4.6
	C233,113.4,212.5,92.8,187.2,92.8"/>
<path class="st0" d="M24.2,84.1h36.5c4.5,0,8.4-3.3,9.2-7.8l10.7-63.1c1-5.7-3.4-10.9-9.2-10.9H57.8c-4.7,0-8.7,3.5-9.2,8.1L43.9,47
	c-0.1,0.8-0.8,1.4-1.6,1.4h-0.9c-0.8,0-1.5-0.6-1.6-1.4L35,10.5c-0.6-4.6-4.6-8.1-9.2-8.1H12.5c-5.8,0-10.2,5.3-9.2,11L15,76.5
	C15.9,80.9,19.7,84.1,24.2,84.1"/>
<path class="st0" d="M156.8,74.7V52.9V38.2c0-19.8-16-35.8-35.8-35.8s-35.8,16-35.8,35.8v14.8v21.8c0,5.1,4.2,9.3,9.3,9.3h7.9
	c5.1,0,9.3-4.2,9.3-9.3V62.5c0-2.2,1.8-4.1,4.1-4.1h10.4c2.2,0,4.1,1.8,4.1,4.1v12.3c0,5.1,4.2,9.3,9.3,9.3h7.9
	C152.6,84.1,156.8,79.9,156.8,74.7"/>
<path class="st0" d="M392.6,2.4L392.6,2.4c-19.8,0-35.8,16-35.8,35.8v14.8v21.8c0,5.1,4.2,9.3,9.3,9.3h7.9c5.1,0,9.3-4.2,9.3-9.3
	V62.5c0-2.2,1.8-4.1,4.1-4.1h10.4c2.2,0,4.1,1.8,4.1,4.1v12.3c0,5.1,4.2,9.3,9.3,9.3h7.9c5.1,0,9.3-4.2,9.3-9.3V52.9V38.2
	C428.3,18.4,412.3,2.4,392.6,2.4"/>
<path class="st0" d="M226.7,48.6h-17.2V11.7c0-5.1-4.2-9.3-9.3-9.3h-25.5c-5.1,0-9.3,4.2-9.3,9.3v63c0,5.1,4.2,9.3,9.3,9.3h52
	c5.1,0,9.3-4.2,9.3-9.3V57.9C236,52.8,231.8,48.6,226.7,48.6"/>
<path class="st0" d="M263.5,113h-11.2c-5.1,0-9.3,4.2-9.3,9.3v43.4c0,5.1,4.2,9.3,9.3,9.3h11.2c5.1,0,9.3-4.2,9.3-9.3v-43.4
	C272.8,117.2,268.6,113,263.5,113"/>
<path class="st0" d="M264.4,92.5L249.3,96c-2.1,0.5-3.6,2.4-3.6,4.6l0,2.2c0,2.5,2.1,4.6,4.7,4.6h15.1c2.6,0,4.7-2.1,4.7-4.7V97
	C270.1,94,267.3,91.8,264.4,92.5"/>
<path class="st0" d="M253.7,84.1h28.6c5.1,0,9.3-4.2,9.3-9.3V58.4h29.8c15.5,0,28-12.5,28-28v0c0-15.5-12.5-28-28-28h-67.7
	c-5.1,0-9.3,4.2-9.3,9.3v63C244.4,79.9,248.6,84.1,253.7,84.1"/>
<path class="st0" d="M108.3,92.3H23.5c-5.1,0-9.3,4.2-9.3,9.3v63c0,5.1,4.2,9.3,9.3,9.3h28.1c5.1,0,9.3-4.2,9.3-9.3v-16.3h17.8
	l3.9,18.2c0.9,4.3,4.7,7.4,9.1,7.4h24.2c5.9,0,10.3-5.4,9.1-11.2l-3.6-17.7c8.9-4.7,15-14,15-24.8
	C136.3,104.9,123.8,92.3,108.3,92.3"/>
<path class="st0" d="M79,211c0-0.6,0-1.2,0.1-1.9c0.4-3,1.3-5.7,2.9-8.1c1.9-2.9,4.1-4.3,6.8-4.3c1.1,0,2.1,0.2,3,0.7
	c0.4-0.4,0.8-0.6,1.5-0.7c0.4,0,0.6,0,0.7,0.1c0.8,0.2,1.1,1,1.1,2.3c0,0.5-0.1,1.6-0.3,3.3c-0.5,5-0.8,8.1-0.8,9.3
	c0,0.8,0.2,1.6,0.5,2.3c0.5,1.1,1.1,1.6,2,1.6c0.2,0,0.3,0,0.5-0.1c0.5-0.1,1.3-0.5,2.3-1.2c1-0.7,1.8-1.1,2.3-1.1
	c0.2,0,0.5,0.1,0.7,0.2c0.5,0.4,0.8,0.8,0.8,1.4c-0.1,0.9-0.8,1.9-2.1,2.9c-1.6,1.1-3.3,1.7-5.1,1.7c-2.2,0-3.9-1.1-4.9-3.4
	c-0.2,0.3-0.5,0.6-0.8,0.9c-1.8,1.6-3.5,2.5-5.3,2.5c-1.1,0-2.1-0.3-2.9-0.9C79.9,217.3,79,214.8,79,211 M90.6,202.3l0.2-1.8
	c-0.4-0.2-0.8-0.3-1.2-0.3c-0.3,0-0.6,0-1,0.1c-1.6,0.5-3,2-4.2,4.6c-1,2.3-1.5,4.6-1.5,7v0.3c0.1,2.2,0.6,3.2,1.6,3.2
	c0.5,0,1.2-0.3,2-0.9c0.8-0.6,1.4-1.1,1.8-1.6c0.2-0.3,0.5-1.3,0.9-2.9C90,206.9,90.5,204.3,90.6,202.3"/>
<path class="st0" d="M101.8,210.9c0-0.6,0-1.2,0.1-1.9c0.4-3,1.3-5.7,2.9-8.1c1.9-2.9,4.1-4.3,6.8-4.3c0.9,0,1.8,0.2,2.7,0.5
	l2.1-15.3c0.3-2.1,1-3.1,2.2-3.1c0.2,0,0.4,0,0.6,0.1c0.8,0.5,1.2,2.3,1.2,5.5c0,0.4-0.2,2.4-0.7,6.1c-2,12.9-3,19.9-3,21.2
	c0,0.8,0.2,1.6,0.5,2.3c0.5,1.1,1.2,1.6,2,1.6c0.2,0,0.3,0,0.5-0.1c0.5-0.1,1.3-0.5,2.3-1.2c1-0.7,1.8-1.1,2.4-1.1
	c0.2,0,0.5,0.1,0.7,0.3c0.4,0.4,0.6,0.8,0.6,1.4c-0.1,0.9-0.8,1.9-2.1,2.9c-1.6,1.1-3.3,1.7-5.1,1.7c-2.2,0-3.9-1.1-5-3.3
	c-0.3,0.3-0.6,0.6-0.9,0.9c-1.7,1.6-3.4,2.3-5.1,2.3c-1.1,0-2.1-0.3-2.9-0.8C102.7,217.3,101.8,214.7,101.8,210.9 M111.2,212.7
	c0.2-0.3,0.5-1.2,0.8-2.6c0.7-3.1,1.2-6.3,1.6-9.6c-0.4-0.2-0.8-0.3-1.3-0.4c-0.3,0-0.6,0-1,0.1c-1.6,0.5-3,2-4.2,4.6
	c-1,2.3-1.5,4.6-1.5,7c0,0.2,0,0.4,0,0.6c0.1,2,0.6,2.9,1.6,2.9c0.5,0,1.2-0.3,1.9-0.8C110.2,213.8,110.8,213.3,111.2,212.7"/>
<path class="st0" d="M126.3,196.9c1.2,0,1.9,0.7,1.9,2.1c0,0.3-0.1,1-0.3,2.1c-0.7,4-1,6.9-1,8.7c0,3.5,1,5.3,2.9,5.3
	c1.2,0,2.5-0.6,3.7-1.7c1.6-1.5,2.9-3.5,3.9-6.1c-0.8-0.1-1.5-0.3-2.1-0.7c-2-1-3-2.7-3-5.1c0-1.2,0.4-2.2,1.3-3
	c1-1,2.1-1.5,3.4-1.5c1.3,0,2.4,0.3,3.3,1c1.3,0.9,1.9,2.2,1.9,3.8c0,0.1,0,0.6-0.1,1.4c0.5-0.1,0.9-0.2,1.8-0.5
	c1.7-0.7,2.4-1.5,2.8-1.5c0.2,0,0.5,0.1,0.7,0.2c0.6,0.3,0.9,0.8,0.9,1.5c0,0.4-0.2,0.8-0.5,1.2c-0.8,1-4.3,2.5-6.7,2.9
	c-0.7,2.5-1.8,4.7-3.2,6.7c-2.5,3.6-5.4,5.4-8.8,5.4c-1.7,0-3.1-0.7-4.2-2c-1.5-1.9-2.2-4.7-2.2-8.6c0-2.9,0.3-5.7,1-8.5
	c0,0,0-0.1,0-0.1C124.5,198,125.2,196.9,126.3,196.9 M137.3,200.9c-0.2,0-0.4,0-0.6,0.1c-0.6,0.2-0.8,0.6-0.8,1.1
	c0,1,0.9,1.6,2.5,1.7c0.1-0.4,0.1-0.8,0.1-1.2c0-0.1,0-0.2,0-0.3C138.4,201.4,138,200.9,137.3,200.9"/>
<path class="st0" d="M143.3,211.2c0-0.6,0-1.2,0.1-1.9c0.4-3,1.3-5.7,2.9-8.1c1.9-2.9,4.1-4.3,6.8-4.3c0.7,0,1.4,0.1,2,0.3
	c2.3,0.7,3.5,2.3,3.5,4.9c0,0.2,0,0.4,0,0.6c-0.2,2.4-1.2,4.4-3.2,6c-1.9,1.6-4.1,2.4-6.6,2.4c-0.5,0-0.9,0-1.4-0.1
	c0,0.3-0.1,0.6-0.1,1.1c0,1,0.2,1.8,0.5,2.4c0.5,0.7,1.5,1.1,2.9,1.3c0.7,0,1.3-0.1,1.9-0.2c1.1-0.3,2.4-0.9,3.9-1.9
	c1-0.6,3.8-2.3,4.2-2.3c0.2,0,0.5,0.1,0.7,0.2c0.6,0.3,0.8,0.8,0.8,1.4c0,0.2,0,0.4-0.1,0.7c-0.5,1.1-4,3.6-6.4,4.6
	c-2.2,0.9-4.1,1.4-5.8,1.4c-0.6,0-1.2-0.1-1.8-0.2C145,218.9,143.3,216.1,143.3,211.2 M151.9,201.1c-1.6,1.1-2.9,3.1-3.8,6.2
	c0.4,0.1,0.9,0.2,1.3,0.2c1.5,0,2.7-0.5,3.8-1.4c1.2-1,1.8-2.2,1.8-3.6c0-1.4-0.4-2.1-1.3-2.1C153.1,200.4,152.5,200.7,151.9,201.1"
	/>
<path class="st0" d="M159.8,216.6l2.3-17c0-0.3,0.1-0.6,0.1-0.8c0.3-1.5,1-2.3,2.1-2.3c0.2,0,0.4,0,0.6,0.1c0.8,0.2,1.2,1,1.2,2.3
	c0,0.2,0,0.5-0.1,1c0,0.3,0,0.6,0,0.7c0-0.1,0.1-0.1,0.1-0.2c1.3-2.3,3.2-3.5,5.6-3.5c0.9,0,1.7,0.3,2.4,0.8
	c1.1,0.8,1.6,1.8,1.6,3.2c0,0.2,0,0.7,0,1.5c0,1.8,0,3.2,0,4.3c0,3.6,0.1,5.7,0.3,6.4c0.1,0.1,0.1,0.3,0.2,0.5c0.5,1.3,1.2,2,2.1,2
	c0.2,0,0.3,0,0.5-0.1c0.5-0.1,1.3-0.5,2.3-1.3c1-0.7,1.7-1.1,2.3-1.1c0.2,0,0.5,0.1,0.7,0.2c0.5,0.3,0.8,0.8,0.8,1.6
	c-0.1,0.9-0.8,1.8-2.2,2.9c-1.6,1.1-3.3,1.6-4.9,1.6c-1.3,0-2.4-0.4-3.4-1.1c-1.9-1.5-2.8-4.8-2.8-10c0-0.4,0-1,0-1.8
	c0-0.9,0.1-1.6,0.1-2.2c0-1.9-0.2-2.9-0.6-2.9c-0.1,0-0.2,0-0.3,0.1c-1,0.4-2.1,2.5-3.9,6c-2.5,5-2.7,8.8-2.7,8.8
	c-0.1,0.6-0.2,1.2-0.5,1.7c-0.5,0.8-1.1,1.3-1.9,1.3c-0.2,0-0.4,0-0.6-0.1C160.2,218.7,159.8,217.9,159.8,216.6"/>
<path class="st0" d="M182,190h0.3c1,0,1.9,0.1,2.7,0.1l1.2-8.2c0.1-0.5,0.2-1,0.3-1.4c0.3-1.2,1-1.7,2-1.7c0.2,0,0.4,0,0.6,0.1
	c0.8,0.2,1.3,1,1.3,2.3c0,0.4-0.4,3.4-1.2,8.9h2.8c0.5,0,0.9,0.1,1.2,0.3c0.6,0.4,0.9,0.9,0.9,1.7c0,0.3-0.1,0.6-0.2,0.9
	c-0.4,0.7-1.1,1-2,1h-3.3c-1.4,10.6-2.1,16.5-2.1,17.8c0,0.8,0.2,1.6,0.5,2.3c0.5,1.1,1.1,1.6,2,1.6c0.2,0,0.4,0,0.6-0.1
	c0.5-0.1,1.2-0.5,2-1.2c0.9-0.7,1.6-1,2.2-1c0.2,0,0.5,0.1,0.7,0.2c0.6,0.3,1,0.8,1,1.5c-0.1,0.9-0.7,1.9-2,2.9
	c-1.6,1.1-3.3,1.7-5.1,1.7c-1.7,0-3.2-0.8-4.3-2.2c-1.1-1.5-1.7-3.5-1.7-5.8c0-0.5,0.7-6.4,2.1-17.6H182h-0.3
	c-1.2-0.1-1.8-0.7-1.8-1.9c0-0.3,0.1-0.6,0.2-0.9C180.3,190.4,181,190,182,190"/>
<path class="st0" d="M222.1,215.1c-0.5-1.4-0.7-3.2-0.7-5.4c0-1.7,0.2-3.6,0.5-6c-0.5,0.3-1.1,0.5-1.8,0.7c-0.2,1.1-0.5,2.2-0.8,3.3
	c-1.2,4-2.7,7.1-4.5,9.2c-0.3,0.3-0.7,0.7-1.1,1c-1.5,1.2-3.1,1.7-4.8,1.7c-2.2,0-3.8-1-4.8-3c-1.6,1.9-3.7,2.9-6.4,2.9
	c-0.6,0-1.2-0.1-1.7-0.2c-3.1-0.9-4.7-4.3-4.7-10.1v-0.3c0-2.8,0.3-5.5,0.9-8.1c0.5-2.2,1.4-3.3,2.6-3.4c1.1,0,1.7,0.7,1.8,2.1
	c0,0.3-0.1,0.9-0.2,1.8c-0.6,4-0.9,6.8-0.9,8.6c0,3.7,0.9,5.6,2.8,5.6c2.5-0.3,4.2-3.5,5.1-9.8c0.2-1.7,0.4-3.6,0.5-5.7
	c0-0.2,0-0.3,0-0.3c0.1-1.4,0.8-2.1,2-2.1c0.1,0,0.2,0,0.4,0c0.9,0.2,1.3,0.9,1.3,2.1c-0.4,4.5-0.7,8.4-0.7,11.6
	c0,0.5,0,0.9,0.1,1.4c0.3,2.1,1,3.1,2.3,3.1c1.4,0,2.7-1.1,3.9-3.2c0.9-1.6,2-4.4,3.1-8.3c-0.6-0.2-1.1-0.4-1.6-0.6
	c-1.8-1.1-2.8-2.7-2.8-5c0-0.8,0.2-1.5,0.6-2.1c0.8-1.4,2.1-2,3.8-2c0.9,0,1.7,0.2,2.5,0.7c1.3,0.8,2,1.9,2,3.4c0,0.6,0,1.3-0.1,2.2
	c0.6-0.3,1.5-0.9,2.6-1.8c0.3-0.2,0.8-0.3,1.2-0.4c0.7,0,1.3,0.2,1.8,0.7c0.3,0.2,0.4,0.5,0.5,0.7c0,0.2-0.1,0.5-0.2,0.8
	c-0.9,3.1-1.4,5.7-1.4,7.9c0,1.4,0.1,2.7,0.5,4c0,0,0,0.1,0,0.1c0.4,1.4,1.1,2.2,2.2,2.2c0.5-0.1,1.4-0.4,2.6-1.2
	c1.1-0.7,1.9-1.1,2.4-1.1c0.3,0,0.5,0.1,0.8,0.3c0.5,0.3,0.7,0.7,0.7,1.2c-0.1,1-0.8,2-2.1,3c-1.6,1.1-3.2,1.7-5,1.7
	c-0.4,0-0.8,0-1.2-0.1C224.2,218.5,222.9,217.2,222.1,215.1 M215.1,199c0,1,0.6,1.7,1.9,2.1c0.2-0.9,0.3-1.6,0.3-2.1
	c0-0.1,0-0.2-0.1-0.3c-0.1-0.5-0.5-0.7-1-0.7c-0.1,0-0.2,0-0.3,0.1C215.4,198.2,215.1,198.5,215.1,199"/>
<path class="st0" d="M232.7,211.2c0-0.6,0-1.2,0.1-1.9c0.4-3,1.3-5.7,2.9-8.1c1.9-2.9,4.1-4.3,6.8-4.3c0.7,0,1.4,0.1,2,0.3
	c2.3,0.7,3.5,2.3,3.5,4.9c0,0.2,0,0.4,0,0.6c-0.2,2.4-1.2,4.4-3.2,6c-1.9,1.6-4.1,2.4-6.6,2.4c-0.5,0-0.9,0-1.4-0.1
	c0,0.3-0.1,0.6-0.1,1.1c0,1,0.2,1.8,0.5,2.4c0.5,0.7,1.5,1.1,2.9,1.3c0.7,0,1.3-0.1,1.9-0.2c1.1-0.3,2.4-0.9,3.9-1.9
	c1-0.6,1.7-1,2.1-1c0.2,0,0.5,0.1,0.7,0.2c0.6,0.3,0.8,0.8,0.8,1.4c0,0.2,0,0.4-0.1,0.7c-0.5,1.1-1.9,2.2-4.3,3.2
	c-2.2,0.9-4.1,1.4-5.8,1.4c-0.6,0-1.2-0.1-1.8-0.2C234.3,218.9,232.7,216.1,232.7,211.2 M241.2,201.1c-1.6,1.1-2.9,3.1-3.8,6.2
	c0.4,0.1,0.9,0.2,1.3,0.2c1.5,0,2.7-0.5,3.8-1.4c1.2-1,1.8-2.2,1.8-3.6c0-1.4-0.4-2.1-1.3-2.1C242.4,200.4,241.8,200.7,241.2,201.1"
	/>
<path class="st0" d="M292.4,210.8c0-0.6,0-1.2,0.1-1.9c0.4-3,1.3-5.7,2.9-8.1c1.9-2.9,4.1-4.3,6.8-4.3c1.1,0,2.1,0.3,3,0.8
	c0.3-0.5,0.8-0.8,1.4-0.8c0.3,0,0.5,0,0.8,0.1c0.7,0.2,1,1,1,2.2c0,0.5-0.1,1.6-0.3,3.3c-0.5,5.1-0.8,8.2-0.8,9.4
	c0,0.8,0.2,1.6,0.5,2.3c0.5,1.1,1.2,1.6,2,1.6c0.3,0,0.7-0.1,1-0.2c2.5-0.9,4.6-4.7,6.3-11.4c-0.7-0.2-1.4-0.5-2-0.9
	c-1.6-1.1-2.4-2.6-2.4-4.7c0-0.8,0.2-1.5,0.6-2.1c0.8-1.3,2.1-2,3.8-2c0.9,0,1.7,0.2,2.5,0.7c1.3,0.8,2,1.9,2,3.3
	c0,0.6,0,1.3-0.1,2.2c0.4-0.2,0.9-0.6,1.6-1.1c1-0.6,1.7-0.9,2.2-0.9c0.6,0,1.1,0.1,1.5,0.4c0.5,0.3,0.8,0.6,0.8,0.9
	c0,0.1-0.1,0.4-0.2,0.8c-0.9,3.1-1.4,5.7-1.4,8.1c0,1.7,0.2,3.1,0.5,4.2c0.5,1.4,1.2,2.2,2.2,2.2c0.5,0,1.4-0.4,2.7-1.2
	c1.1-0.7,1.9-1.1,2.4-1.1c0.3,0,0.5,0.1,0.8,0.3c0.5,0.3,0.7,0.7,0.7,1.2c-0.1,1-0.7,2-2.1,3c-1.6,1.1-3.2,1.7-5,1.7
	c-0.2,0-0.4,0-0.7,0c-2-0.2-3.4-1.4-4.4-3.4c-0.7-1.2-1-3.2-1-6.1c0-0.6,0-1.2,0.1-1.8c0.1-1.9,0.3-3.3,0.5-4.1
	c-0.5,0.3-1.1,0.5-1.8,0.6c-0.1,0.5-0.2,1.1-0.3,1.6c-2.2,9.2-6,13.8-11.4,13.8c-2.3,0-3.9-1.1-4.9-3.4c-0.2,0.3-0.5,0.5-0.8,0.8
	c-1.8,1.7-3.6,2.6-5.4,2.6c-1.1,0-2.1-0.3-2.9-0.9C293.3,217.1,292.4,214.6,292.4,210.8 M304,203c0-0.1,0.1-1,0.3-2.6
	c-0.4-0.2-0.8-0.3-1.2-0.3c-0.3,0-0.7,0-1,0.1c-1.6,0.5-3,2-4.1,4.6c-1,2.3-1.5,4.6-1.5,6.9c0,0.3,0,0.7,0.1,1
	c0.2,1.7,0.7,2.6,1.6,2.6c0.5,0,1.1-0.2,1.8-0.7c0.8-0.6,1.5-1.2,2-1.8c0.1-0.2,0.3-0.8,0.6-1.7C303.1,208.4,303.6,205.7,304,203
	 M315.9,198.5c0,0.9,0.6,1.6,1.9,2c0.2-1,0.3-1.7,0.3-2c0-0.1,0-0.2-0.1-0.3c-0.1-0.5-0.4-0.7-1-0.7c-0.1,0-0.2,0-0.3,0.1
	C316.2,197.7,315.9,198.1,315.9,198.5"/>
<path class="st0" d="M333,217l4.5-35.3c0.1-0.6,0.2-1.1,0.3-1.5c0.3-1.1,1-1.6,1.9-1.6c0.2,0,0.4,0,0.6,0.1c0.8,0.2,1.2,1,1.2,2.3
	c0,1.4-0.7,7.5-2,18c1.7-1.4,3.5-2.1,5.4-2.1c1.1,0,2.1,0.4,3,1.2c1.2,1.1,1.8,2.6,1.8,4.4c0,2.4-1,4.7-3.1,6.8
	c-1.2,1.3-3.1,2.6-5.6,4.2c0.9,1.2,2,1.8,3.3,1.9c0.9,0,2.1-0.4,3.8-1.1c1.4-0.7,2.4-1,2.8-1c0.2,0,0.4,0.1,0.6,0.2
	c0.6,0.3,0.8,0.9,0.8,1.6c0,0.1,0,0.2-0.1,0.4c-0.2,0.8-1.2,1.7-2.7,2.6c-1.8,1-3.4,1.5-4.8,1.5c-3.3,0-5.8-1.2-7.6-3.6
	c0,0.3-0.1,0.6-0.1,0.9c-0.3,1.7-1.1,2.6-2.4,2.6c-0.2,0-0.5-0.1-0.7-0.2C333.4,218.6,333,218,333,217 M345.7,202.6
	c0-0.2-0.1-0.4-0.2-0.6c-0.3-0.4-0.6-0.6-1.1-0.6c-0.3,0-0.5,0-0.8,0.1c-1.3,0.4-2.6,1.5-3.7,3.2c-1.2,1.9-1.9,3.8-1.9,5.7
	C343.1,208,345.6,205.4,345.7,202.6"/>
<path class="st0" d="M295.2,213.4c-0.2-0.1-0.4-0.2-0.7-0.2c-0.6,0-1.4,0.4-2.3,1.1c-1,0.7-1.7,1.1-2.3,1.2c-0.2,0-0.4,0.1-0.6,0.1
	c-0.9,0-2.7,0-2.2-4.6c0.4-1,0.7-2,0.9-3.1c0.1-0.7,0.2-1.3,0.2-1.9c0.2-3.7-0.5-6.3-2.2-7.7c-0.2-0.2-0.5-0.3-0.8-0.5
	c-0.7-0.5-1.5-0.8-2.3-0.8c-1.3,0-2.5,0.4-3.5,1.2c-0.6,0.3-1.2,0.8-1.8,1.3c-0.1,0.1-0.2,0.2-0.3,0.2c0-0.3,0-0.5,0-0.7
	c0-1.3-0.4-2.1-1.2-2.3c-0.2,0-0.4-0.1-0.6-0.1c-1.2,0-2,0.9-2.2,2.8c0,0.1,0,0.2,0,0.3c-3.1,23.1-4.6,34.8-4.6,35.1
	c0,0.9,0.3,1.6,0.9,2.1c0.3,0.2,0.7,0.4,1.1,0.4c0.8,0,1.5-0.4,2-1.3c0.3-0.5,0.5-1.1,0.5-1.7c0.3-4.1,0.9-9.3,1.9-15.4
	c0.8,0.5,1.6,0.7,2.6,0.8c2.4,0.1,4.6-1,6.5-3.3c0.3,0.8,0.7,1.5,1.4,2c0.9,0.7,2,1.1,3.4,1.1c1.6,0,3.3-0.6,4.9-1.7
	c1.3-0.9,2.1-1.8,2.2-2.6c0-0.1,0-0.2,0-0.2C296,214.2,295.8,213.7,295.2,213.4 M282.4,211.6c-1.3,2.5-2.7,3.9-4.4,4.3
	c-0.3,0.1-0.7,0.1-1,0.1c-0.4,0-0.8-0.2-1.2-0.4c0.3-1.6,0.5-2.5,0.5-2.6c0.5-2.7,1.2-5.3,2-7.8c0.3-0.9,0.5-1.4,0.7-1.6
	c0.5-0.6,1.2-1.2,2.1-1.7c0.7-0.5,1.3-0.7,1.8-0.6c0.9,0.1,1.4,0.9,1.5,2.7c0,0.3,0,0.6,0,1C284.2,207.1,283.6,209.4,282.4,211.6"/>
</svg>
