<svg xmlns="http://www.w3.org/2000/svg" xmlns:xlink="http://www.w3.org/1999/xlink" width="176" height="49.309" viewBox="0 0 176 49.309"><defs><style>.a{fill:#008675;}.b{clip-path:url(#a);}</style><clipPath id="a"><rect class="a" width="176" height="49.309"/></clipPath></defs><g class="b"><path class="a" d="M197.53,117.53a3.222,3.222,0,0,0-2.381.972,3.254,3.254,0,0,0-.952,2.388,3.323,3.323,0,0,0,.952,2.423,3.217,3.217,0,0,0,2.381.96,3.261,3.261,0,0,0,1.819-.516,3.542,3.542,0,0,0,1.246-1.5h-.635a2.647,2.647,0,0,1-2.43,1.44,2.847,2.847,0,0,1-1.356-.324,2.622,2.622,0,0,1-.977-.923,2.927,2.927,0,0,1-.4-1.344h5.982c.008-.1.012-.172.012-.228a3.323,3.323,0,0,0-.916-2.387,3.1,3.1,0,0,0-2.344-.96m2.674,3.023h-5.4a2.676,2.676,0,0,1,2.723-2.46,2.718,2.718,0,0,1,.989.18,2.4,2.4,0,0,1,.83.492,2.5,2.5,0,0,1,.574.792,2.711,2.711,0,0,1,.281,1" transform="translate(-127.432 -77.123)"/><path class="a" d="M221.891,119.078a3.1,3.1,0,0,0-1.2-1.127,3.342,3.342,0,0,0-1.673-.42,3.372,3.372,0,1,0,0,6.742,3.423,3.423,0,0,0,1.673-.408,3.1,3.1,0,0,0,1.2-1.128l.061,1.4h.513v-6.478h-.489Zm-.4,3.263a2.531,2.531,0,0,1-1,1,2.846,2.846,0,0,1-1.428.36,2.711,2.711,0,0,1-2.808-2.8,2.7,2.7,0,0,1,.793-1.992,2.8,2.8,0,0,1,4.811,1.992,2.874,2.874,0,0,1-.366,1.439" transform="translate(-141.502 -77.124)"/><path class="a" d="M244.167,121.382a1.049,1.049,0,0,0-.33-.324,2.509,2.509,0,0,0-.391-.216,2.318,2.318,0,0,0-.476-.156q-.305-.085-.488-.12t-.5-.084l-.427-.072q-.146-.024-.391-.084c-.155-.041-.277-.076-.366-.108a2.727,2.727,0,0,1-.281-.132.9.9,0,0,1-.244-.2,1.489,1.489,0,0,1-.134-.252,1.178,1.178,0,0,1-.048-.348,1.031,1.031,0,0,1,.489-.888,2.244,2.244,0,0,1,1.294-.336,2.665,2.665,0,0,1,.745.1,1.8,1.8,0,0,1,.574.264,1.224,1.224,0,0,1,.367.42,1.431,1.431,0,0,1,.159.563h.573a1.913,1.913,0,0,0-.33-1,1.869,1.869,0,0,0-.83-.648,3.167,3.167,0,0,0-1.245-.228,2.806,2.806,0,0,0-1.721.492,1.53,1.53,0,0,0-.659,1.284,1.642,1.642,0,0,0,.073.5,1.419,1.419,0,0,0,.183.384,1.162,1.162,0,0,0,.3.288q.208.132.366.216a3.334,3.334,0,0,0,.452.144q.293.072.464.108t.5.084q.391.072.61.12a3.123,3.123,0,0,1,.525.144,1.538,1.538,0,0,1,.464.24.978.978,0,0,1,.293.348,1.006,1.006,0,0,1,.122.5,1.114,1.114,0,0,1-.537.972,2.419,2.419,0,0,1-1.392.36,2.34,2.34,0,0,1-1.38-.372,1.406,1.406,0,0,1-.6-1.044h-.586a1.944,1.944,0,0,0,.745,1.439,2.878,2.878,0,0,0,1.807.528,2.968,2.968,0,0,0,1.831-.516,1.652,1.652,0,0,0,.7-1.38,1.744,1.744,0,0,0-.086-.563,1.341,1.341,0,0,0-.2-.432" transform="translate(-157.074 -77.124)"/><path class="a" d="M263.581,110.938a2.165,2.165,0,0,0-.488,1.584v.516h-2.125l-.234.5-2.282,4.908-2.7-5.435h-.646l3.027,6.094-.353.709a3.075,3.075,0,0,1-.794,1.152,1.735,1.735,0,0,1-1.063.288h-.5v.527h.551a2.153,2.153,0,0,0,1.355-.4,3.78,3.78,0,0,0,1-1.427l3.046-6.419h1.717v5.952h.6v-5.952h2.233v-.5H263.68v-.5a1.713,1.713,0,0,1,.353-1.236,1.816,1.816,0,0,1,1.283-.36h.61v-.491h-.707a2.282,2.282,0,0,0-1.638.491" transform="translate(-167.401 -72.475)"/><path class="a" d="M290.323,117.531a3.4,3.4,0,0,0-2.466.96,3.45,3.45,0,0,0,.012,4.823,3.4,3.4,0,0,0,2.466.96,3.361,3.361,0,0,0,2.454-.96,3.435,3.435,0,0,0,0-4.823,3.374,3.374,0,0,0-2.466-.96m2.478,4.811a2.616,2.616,0,0,1-1.013,1,2.939,2.939,0,0,1-1.453.36,2.788,2.788,0,0,1-2.039-.792,2.715,2.715,0,0,1-.806-2,2.808,2.808,0,0,1,.366-1.428,2.59,2.59,0,0,1,1.013-1.007,2.96,2.96,0,0,1,1.465-.36,2.775,2.775,0,0,1,2.027.791,2.693,2.693,0,0,1,.806,2,2.874,2.874,0,0,1-.366,1.439" transform="translate(-188.251 -77.124)"/><path class="a" d="M312.737,117.531a3.4,3.4,0,0,0-2.466.96,3.449,3.449,0,0,0,.012,4.823,3.4,3.4,0,0,0,2.466.96,3.362,3.362,0,0,0,2.454-.96,3.434,3.434,0,0,0,0-4.823,3.374,3.374,0,0,0-2.466-.96m2.478,4.811a2.614,2.614,0,0,1-1.013,1,2.939,2.939,0,0,1-1.453.36,2.788,2.788,0,0,1-2.039-.792,2.715,2.715,0,0,1-.806-2,2.808,2.808,0,0,1,.366-1.428,2.59,2.59,0,0,1,1.013-1.007,2.96,2.96,0,0,1,1.465-.36,2.775,2.775,0,0,1,2.027.791,2.693,2.693,0,0,1,.806,2,2.874,2.874,0,0,1-.366,1.439" transform="translate(-202.958 -77.124)"/><path class="a" d="M337.886,114.848a3.187,3.187,0,0,0-1.184-1.056,3.4,3.4,0,0,0-1.624-.384,3.372,3.372,0,1,0,0,6.743,3.409,3.409,0,0,0,1.648-.4,3.18,3.18,0,0,0,1.2-1.092l.085,1.356h.476v-8.77h-.6Zm-.757,3.935a2.8,2.8,0,0,1-4.81-2,2.883,2.883,0,0,1,.354-1.428,2.589,2.589,0,0,1,1.013-1.008,2.89,2.89,0,0,1,1.429-.36,2.832,2.832,0,0,1,2.014,4.8" transform="translate(-217.667 -73.002)"/><path class="a" d="M360.293,121.814a1.347,1.347,0,0,0-.195-.432,1.063,1.063,0,0,0-.33-.324,2.508,2.508,0,0,0-.391-.216,2.319,2.319,0,0,0-.476-.156q-.305-.084-.489-.12t-.5-.084l-.427-.072q-.146-.024-.391-.084t-.366-.108a2.724,2.724,0,0,1-.281-.132.91.91,0,0,1-.244-.2,1.469,1.469,0,0,1-.134-.252,1.155,1.155,0,0,1-.049-.348,1.031,1.031,0,0,1,.489-.888,2.245,2.245,0,0,1,1.294-.336,2.667,2.667,0,0,1,.745.1,1.8,1.8,0,0,1,.574.264,1.219,1.219,0,0,1,.366.42,1.414,1.414,0,0,1,.159.563h.574a1.916,1.916,0,0,0-.33-1,1.867,1.867,0,0,0-.83-.648,3.167,3.167,0,0,0-1.245-.228,2.807,2.807,0,0,0-1.722.492,1.529,1.529,0,0,0-.659,1.283,1.641,1.641,0,0,0,.073.5,1.418,1.418,0,0,0,.183.384,1.165,1.165,0,0,0,.305.288q.208.132.366.216a3.294,3.294,0,0,0,.452.144q.293.072.464.108t.5.084q.39.072.61.12a3.111,3.111,0,0,1,.525.144,1.536,1.536,0,0,1,.464.24.984.984,0,0,1,.293.348,1,1,0,0,1,.122.5,1.114,1.114,0,0,1-.537.972,2.418,2.418,0,0,1-1.392.36,2.34,2.34,0,0,1-1.38-.372,1.406,1.406,0,0,1-.6-1.044H355.3a1.943,1.943,0,0,0,.745,1.439,2.875,2.875,0,0,0,1.807.528,2.968,2.968,0,0,0,1.832-.516,1.652,1.652,0,0,0,.7-1.379,1.745,1.745,0,0,0-.086-.564" transform="translate(-233.148 -77.124)"/><path class="a" d="M31.829,18.261a5.965,5.965,0,0,1-2.442,2.994,7.513,7.513,0,0,1-4,1.012,6.448,6.448,0,0,1-4.673-1.645,6.054,6.054,0,0,1-1.684-4.6V0H10.483A13.126,13.126,0,0,0,4.716,1.182,7.924,7.924,0,0,0,1.179,4.218,7.561,7.561,0,0,0,0,8.309a8.443,8.443,0,0,0,1.347,4.6A9.474,9.474,0,0,0,3.63,15.484L7.458,11.65a4.458,4.458,0,0,1-.721-.979,3.6,3.6,0,0,1-.547-1.856A2.82,2.82,0,0,1,7.368,6.5a4.746,4.746,0,0,1,3.115-.97h1.642V16.406A12.993,12.993,0,0,0,13.641,22.9a10.244,10.244,0,0,0,4.21,4.049A12.554,12.554,0,0,0,23.787,28.3a13.776,13.776,0,0,0,4.379-.675,11.033,11.033,0,0,0,3.663-1.982v3.374a5.148,5.148,0,0,1-.968,3.332A3.778,3.778,0,0,1,27.7,33.527a4.193,4.193,0,0,1-2.61-.675,2.355,2.355,0,0,1-1.01-1.94H17.809c0,3.111.926,4.893,2.694,6.2a11.859,11.859,0,0,0,7.2,1.94c3.537,0,6.273-.843,8.168-2.615,1.853-1.729,2.821-4.259,2.821-7.591V0H31.829Z" transform="translate(0 -0.001)"/><path class="a" d="M255.679,48.364V42.618c-.007,0,0,0,0-.007s.005,0,0-.005l0,0V25.11H249.14V39.893a5.488,5.488,0,0,1-2.067,1.991,6.19,6.19,0,0,1-2.953.678,5.465,5.465,0,0,1-3.417-1.017,3.853,3.853,0,0,1-1.308-3.261V25.11h-6.581V39.893a10.683,10.683,0,0,0,.29,2.581,3.775,3.775,0,0,1-1.556.341,2.165,2.165,0,0,1-1.73-.678,2.979,2.979,0,0,1-.633-2.076V32.989a8.359,8.359,0,0,0-1.223-4.532,7.973,7.973,0,0,0-3.164-2.88,9.817,9.817,0,0,0-4.261-.974,10.352,10.352,0,0,0-4.6,1.1A9.187,9.187,0,0,0,212.31,28.8a7.219,7.219,0,0,0-3.164-3.092,9.741,9.741,0,0,0-4.514-1.1,10.475,10.475,0,0,0-4.219.89,10.289,10.289,0,0,0-3.5,2.456V25.11h-6.286V42.5a3.766,3.766,0,0,1-1.5.317,2.163,2.163,0,0,1-1.73-.678,2.975,2.975,0,0,1-.633-2.076V32.989a8.359,8.359,0,0,0-1.224-4.532,7.973,7.973,0,0,0-3.164-2.88,9.815,9.815,0,0,0-4.261-.974,10.352,10.352,0,0,0-4.6,1.1,9.186,9.186,0,0,0-3.628,3.092,7.22,7.22,0,0,0-3.164-3.092,9.744,9.744,0,0,0-4.514-1.1,10.475,10.475,0,0,0-4.219.89,10.284,10.284,0,0,0-3.5,2.456V25.11H148.2V42.472a3.9,3.9,0,0,1-1.58.344,2.163,2.163,0,0,1-1.729-.678,2.976,2.976,0,0,1-.633-2.076V25.11H137.68V40.274a5.831,5.831,0,0,1-5.062,2.457c-3.08,0-4.6-1.609-4.6-4.829V25.11h-6.581V40.062a8.315,8.315,0,0,0,1.266,4.7,7.483,7.483,0,0,0,3.417,2.838,11.42,11.42,0,0,0,4.683.932,11.612,11.612,0,0,0,4.43-.8,8.98,8.98,0,0,0,3.417-2.414,5.8,5.8,0,0,0,2.616,2.414,7.69,7.69,0,0,0,7.184-1.092v1.389h6.335V33.37a5.671,5.671,0,0,1,2.152-2.2,6.03,6.03,0,0,1,2.911-.8,4.392,4.392,0,0,1,3.122,1.228,4.538,4.538,0,0,1,1.308,3.43v13h6.581V33.37a5.4,5.4,0,0,1,2.152-2.2,5.6,5.6,0,0,1,2.827-.8,4.477,4.477,0,0,1,3.08,1.143,4.225,4.225,0,0,1,1.266,3.3v6.819a6.226,6.226,0,0,0,2.11,5.125c2.993,2.475,7.357.807,8.661-.1v1.366h6.255V33.37a5.668,5.668,0,0,1,2.152-2.2,6.03,6.03,0,0,1,2.911-.8,4.39,4.39,0,0,1,3.122,1.228,4.537,4.537,0,0,1,1.308,3.43v13h6.581V33.37a5.4,5.4,0,0,1,2.152-2.2,5.6,5.6,0,0,1,2.826-.8,4.476,4.476,0,0,1,3.079,1.143,4.224,4.224,0,0,1,1.266,3.3v6.819a6.227,6.227,0,0,0,2.11,5.125,6.542,6.542,0,0,0,4.825,1.7,10.513,10.513,0,0,0,6.034-2.232,9.374,9.374,0,0,0,6.395,2.1,11.973,11.973,0,0,0,3.966-.636,9,9,0,0,0,3.206-1.864v2.9c-.026,2.269-.976,3.12-4.827,3.009v5.324a14.131,14.131,0,0,0,1.874.118,10.37,10.37,0,0,0,6.792-2.16,7.646,7.646,0,0,0,2.7-6.311v-.327l.005,0,0,0v0s0,0-.007,0" transform="translate(-79.688 -16.144)"/></g></svg>