<svg xmlns="http://www.w3.org/2000/svg" width="229.333" height="40.182" viewBox="0 0 229.333 40.182">
  <g id="logo" transform="translate(-563 -200)">
    <g id="Group_3" data-name="Group 3" transform="translate(563 200)">
      <path id="Path_10" data-name="Path 10" d="M29.9,37.3H2.655L30.008,1.449V.4H.937V2.1H27.353L0,37.949V39H29.9Z" transform="translate(0 0.492)" fill="#EEE0C9"/>
      <path id="Path_11" data-name="Path 11" d="M26.649,1.049,24.507,0l-4.8,6.671h1.361Z" transform="translate(24.265)" fill="#EEE0C9"/>
      <path id="Path_12" data-name="Path 12" d="M16.089,18.56c.335-6.849,4.975-11.981,11.245-11.981,6.939,0,10.642,5.912,10.91,11.981ZM27.467,4.95c-7.675,0-13.3,6.292-13.3,14.457v.112c0,8.88,6.292,14.569,13.788,14.569a13.92,13.92,0,0,0,11.356-5.734L38,27.305a12.669,12.669,0,0,1-10,5.131c-6.225,0-11.579-4.685-11.914-12.249h24.1v-.625C40.207,12.112,35.834,4.95,27.467,4.95" transform="translate(17.444 6.094)" fill="#EEE0C9"/>
      <path id="Path_13" data-name="Path 13" d="M61.15,12.247c0,6.4-5.131,10.151-13.141,10.151H36.474V2.1H48.232c7.943,0,12.918,3.7,12.918,10.04v.112ZM48.388.4H34.6V39h1.874V24.161H47.942C56.777,24.161,63,19.922,63,12.2v-.112C63.024,4.751,57.446.4,48.388.4" transform="translate(42.596 0.492)" fill="#EEE0C9"/>
      <path id="Path_14" data-name="Path 14" d="M49.971,18.56c.335-6.849,4.953-11.981,11.245-11.981,6.961,0,10.642,5.912,10.932,11.981ZM61.327,4.95c-7.675,0-13.3,6.292-13.3,14.457v.112c0,8.88,6.292,14.569,13.788,14.569a13.92,13.92,0,0,0,11.356-5.734l-1.316-1.049a12.669,12.669,0,0,1-10,5.131c-6.225,0-11.579-4.685-11.914-12.249h24.1v-.625C74.067,12.112,69.716,4.95,61.327,4.95" transform="translate(59.129 6.094)" fill="#EEE0C9"/>
      <path id="Path_15" data-name="Path 15" d="M75.025,6.822V4.992c-5.912-.156-10.151,4.306-11.8,9.036V5.55H61.46v27.8h1.763V20.164c0-6.849,4.8-13.342,11.535-13.342h.268Z" transform="translate(75.663 6.141)" fill="#EEE0C9"/>
      <path id="Path_16" data-name="Path 16" d="M68.981,18.56c.335-6.849,4.975-11.981,11.245-11.981,6.939,0,10.642,5.912,10.91,11.981ZM80.337,4.95c-7.675,0-13.3,6.292-13.3,14.457v.112c0,8.88,6.292,14.569,13.788,14.569a13.92,13.92,0,0,0,11.356-5.734l-1.316-1.049a12.669,12.669,0,0,1-10,5.131c-6.225,0-11.579-4.685-11.914-12.249h24.1v-.625C93.077,12.112,88.726,4.95,80.337,4.95" transform="translate(82.532 6.094)" fill="#EEE0C9"/>
      <rect id="Rectangle_4" data-name="Rectangle 4" width="2.365" height="3.369" transform="translate(179.58 0.669)" fill="#EEE0C9"/>
      <rect id="Rectangle_5" data-name="Rectangle 5" width="1.829" height="27.799" transform="translate(179.87 11.691)" fill="#EEE0C9"/>
      <path id="Path_17" data-name="Path 17" d="M97.895,6.822V4.992c-5.912-.156-10.151,4.306-11.8,9.036V5.55H84.33v27.8h1.763V20.164c0-6.849,4.8-13.342,11.535-13.342h.268Z" transform="translate(103.817 6.141)" fill="#EEE0C9"/>
      <path id="Path_18" data-name="Path 18" d="M116.819,19.576c0,7.006-5.131,12.851-12.472,12.851A12.544,12.544,0,0,1,91.831,19.576v-.112c0-7.006,5.065-12.851,12.4-12.851a12.6,12.6,0,0,1,12.583,12.851Zm.112-13.967v6.716A13.986,13.986,0,0,0,104.347,4.94,14.321,14.321,0,0,0,89.89,19.509v.112a14.213,14.213,0,0,0,14.39,14.457,14.044,14.044,0,0,0,12.628-7.452v6.8h1.763V5.609Z" transform="translate(110.662 6.082)" fill="#EEE0C9"/>
    </g>
  </g>
</svg>
