<svg width="24" height="24" viewBox="0 0 24 24" fill="none" xmlns="http://www.w3.org/2000/svg">
<path d="M12 0C5.37257 0 0 5.37257 0 12C0 17.628 3.87429 22.35 9.10114 23.6469V15.6669H6.62657V12H9.10114V10.4203C9.10114 6.336 10.9491 4.44257 14.9597 4.44257C15.72 4.44257 17.0314 4.59171 17.568 4.74086V8.06486C17.2851 8.03486 16.7931 8.02029 16.182 8.02029C14.214 8.02029 13.4537 8.766 13.4537 10.7031V12H17.3734L16.6997 15.6669H13.4537V23.9117C19.3954 23.1943 24 18.1346 24 12C24 5.37257 18.6274 0 12 0Z" fill="#ffffff"/>
</svg>
