<svg width="24" height="24" viewBox="0 0 24 24" fill="none" xmlns="http://www.w3.org/2000/svg">
<path d="M7.65153 1.5735C6.53403 1.626 5.77128 1.8045 5.10453 2.06625C4.41453 2.3355 3.82953 2.69625 3.24678 3.2805C2.66478 3.86475 2.30628 4.4505 2.03928 5.14125C1.78053 5.8095 1.60578 6.573 1.55628 7.69125C1.50678 8.80875 1.49628 9.16875 1.50153 12.0195C1.50678 14.8703 1.51953 15.228 1.57353 16.3485C1.62678 17.4653 1.80453 18.228 2.06628 18.8955C2.33553 19.5855 2.69628 20.1705 3.28053 20.7533C3.86478 21.3353 4.44978 21.693 5.14278 21.9608C5.81028 22.2188 6.57453 22.395 7.69203 22.4438C8.80953 22.4925 9.16953 22.5038 12.0203 22.4985C14.871 22.4933 15.2295 22.4805 16.35 22.4273C17.4705 22.374 18.2288 22.1955 18.8963 21.9345C19.5863 21.6645 20.172 21.3045 20.754 20.7195C21.336 20.1345 21.6945 19.5488 21.9608 18.8573C22.2195 18.1898 22.395 17.4255 22.4438 16.3088C22.4925 15.1883 22.5045 14.8305 22.4985 11.979C22.4925 9.1275 22.4805 8.7705 22.4273 7.65075C22.374 6.531 22.1963 5.7705 21.9345 5.103C21.6645 4.413 21.3045 3.828 20.7203 3.24525C20.136 2.6625 19.5495 2.30475 18.858 2.0385C18.1898 1.77975 17.4263 1.6035 16.3088 1.5555C15.1913 1.5075 14.8313 1.49475 11.9798 1.5C9.12828 1.50525 8.77128 1.518 7.65153 1.572M7.77453 20.5538C6.75078 20.5095 6.19503 20.3393 5.82453 20.1968C5.33403 20.0078 4.98453 19.779 4.61553 19.4138C4.24653 19.0485 4.01928 18.6975 3.82803 18.2078C3.68403 17.8373 3.51078 17.2823 3.46278 16.2585C3.41103 15.1523 3.39978 14.82 3.39378 12.0165C3.38778 9.213 3.39828 8.8815 3.44703 7.7745C3.49053 6.7515 3.66153 6.195 3.80403 5.8245C3.99303 5.33325 4.22103 4.9845 4.58703 4.6155C4.95303 4.2465 5.30328 4.01925 5.79303 3.828C6.16278 3.68325 6.71853 3.5115 7.74153 3.46275C8.84853 3.41025 9.18078 3.39975 11.9835 3.39375C14.7863 3.38775 15.1193 3.39825 16.227 3.447C17.25 3.49125 17.8065 3.66075 18.1763 3.804C18.6668 3.993 19.0163 4.22025 19.3853 4.587C19.7543 4.95375 19.9815 5.3025 20.1735 5.79375C20.3183 6.16275 20.49 6.71775 20.538 7.7415C20.5905 8.8485 20.6025 9.18075 20.6078 11.9835C20.613 14.7863 20.6033 15.1193 20.5545 16.2255C20.5095 17.2493 20.34 17.805 20.1975 18.1763C20.0085 18.6668 19.7805 19.0163 19.4138 19.3853C19.047 19.7543 18.6975 19.9815 18.2078 20.1728C17.838 20.3168 17.2823 20.4893 16.26 20.538C15.153 20.5898 14.8208 20.601 12.0173 20.607C9.21378 20.613 8.88153 20.6018 7.77453 20.5538ZM16.3343 6.38775C16.3358 7.08375 16.9005 7.647 17.5965 7.6455C18.2925 7.644 18.8558 7.07925 18.8543 6.38325C18.8528 5.68725 18.288 5.124 17.592 5.1255C16.896 5.127 16.3335 5.69175 16.3343 6.38775ZM6.60903 12.0098C6.61503 14.9873 9.03303 17.3963 12.0105 17.3903C14.988 17.3843 17.3978 14.9663 17.3925 11.9888C17.3865 9.01125 14.9678 6.6015 11.9903 6.6075C9.01278 6.6135 6.60303 9.03225 6.60903 12.0098ZM8.50128 12.006C8.49753 10.0733 10.0613 8.50275 11.9948 8.499C13.9275 8.49525 15.498 10.059 15.5018 11.9925C15.5055 13.9253 13.9418 15.4958 12.0083 15.4995C10.0755 15.5033 8.50503 13.9403 8.50128 12.0075" fill="#ffffff"/>
</svg>
