<svg xmlns="http://www.w3.org/2000/svg" width="67.19" height="36.021" viewBox="0 0 67.19 36.021"><defs><style>.a{fill:#000;}</style></defs><g transform="translate(-26.547 -30.654)"><g transform="translate(26.547 30.654)"><path class="a" d="M1072.119-113.195v-1.141h0v-.087h0v-1.013a1.074,1.074,0,0,0-1.069-1.076,1.072,1.072,0,0,0-1.074,1.076v2.241h2.143Z" transform="translate(-1037.898 122.139)"/><path class="a" d="M1079.224-126.246h-53.206a3.353,3.353,0,0,0-3.059,1.975l0,0-.008.026c-.035.078-.067.158-.1.241l-7.22,18.3a1.976,1.976,0,0,0-.226.923v12.571a1.983,1.983,0,0,0,1.987,1.983h31.906a2.013,2.013,0,0,0,.52-.068l29.98-7.948a2.846,2.846,0,0,0,.311-.066c.093-.026.189-.057.277-.091l.368-.093-.069-.034a3.36,3.36,0,0,0,1.911-3.032v-21.321A3.369,3.369,0,0,0,1079.224-126.246Zm-8.318,3.155h5.563v10.138h-5.563Zm-10.788,0a3.088,3.088,0,0,1,2.129.919h0l.664.763.66-.763a3.085,3.085,0,0,1,2.083-.919l4.638.007-4.409,5.115,4.34,5.016h-4.586a3.1,3.1,0,0,1-2.168-.92l-.561-.651-.562.651a3.1,3.1,0,0,1-2.171.92H1055.6l4.339-5.016-4.414-5.12Zm-16.719.58h0s1.331-.786,5.154-.786,5.151.786,5.151.786h0a2.059,2.059,0,0,1,1.221,1.835v7.723h-5.562v-3h-1.614v3h-5.564v-7.723A2.051,2.051,0,0,1,1043.4-122.512Zm-16.164,2.161v-2.584h3.96c1.986,0,2.984,2.207,2.984,2.207s.991-2.207,2.984-2.207h3.955v9.981h-4.443v-2.579l-2.5,1.5-2.5-1.5v2.579h-4.448Zm16.48,19.2h-4.492v-2.6l-2.52,1.514-2.52-1.514v2.6h-4.49v-10.082h4c2.01,0,3.013,2.232,3.013,2.232s1.006-2.232,3.017-2.232h4Zm6.62,0h-5.562v-10.138h5.562Zm14.062-2.725v2.725h-13.452l5.309-7.407H1051.7v-2.731h13.266l-5.274,7.412Zm12.741-4.713h-6.609v1.389h4.075v2.025h-4.075v1.327h6.609v2.7h-11.684v-7.827a1.825,1.825,0,0,1,.015-.246c0-.047-.015-.091-.015-.139a1.928,1.928,0,0,1,1.932-1.926h9.752Z" transform="translate(-1015.402 126.246)"/></g></g></svg>
